<svg width="345" height="212" viewBox="0 0 345 212" fill="none" xmlns="http://www.w3.org/2000/svg">
<rect x="6" y="48" width="339" height="118" rx="14" fill="#F5F5F5"/>
<rect x="30" y="72" width="291" height="69.9302" fill="#030303"/>
<path fill-rule="evenodd" clip-rule="evenodd" d="M77.3708 120.5C84.846 120.5 90.9057 114.44 90.9057 106.965C90.9057 99.49 84.846 93.4302 77.3708 93.4302C69.8957 93.4302 63.8359 99.49 63.8359 106.965C63.8359 114.44 69.8957 120.5 77.3708 120.5ZM81.5933 99.7353C81.7988 99.0052 81.0903 98.5735 80.4433 99.0345L71.4108 105.469C70.7091 105.969 70.8195 106.965 71.5766 106.965H73.9551V106.947H78.5907L74.8136 108.279L73.1484 114.195C72.9429 114.925 73.6513 115.357 74.2984 114.896L83.3309 108.461C84.0326 107.961 83.9221 106.965 83.1651 106.965H79.5582L81.5933 99.7353Z" fill="#A8FF35"/>
<path d="M108.374 99.5314V113.965H106.461V99.5314H108.374ZM114.421 106.025V107.591H107.957V106.025H114.421ZM115.402 99.5314V101.098H107.957V99.5314H115.402ZM119.397 103.239V113.965H117.553V103.239H119.397ZM117.415 100.394C117.415 100.096 117.504 99.8453 117.682 99.6404C117.867 99.4356 118.138 99.3331 118.495 99.3331C118.846 99.3331 119.113 99.4356 119.298 99.6404C119.49 99.8453 119.586 100.096 119.586 100.394C119.586 100.678 119.49 100.923 119.298 101.127C119.113 101.326 118.846 101.425 118.495 101.425C118.138 101.425 117.867 101.326 117.682 101.127C117.504 100.923 117.415 100.678 117.415 100.394ZM124.176 105.529V113.965H122.342V103.239H124.076L124.176 105.529ZM123.739 108.196L122.976 108.166C122.983 107.432 123.092 106.755 123.303 106.134C123.515 105.506 123.812 104.961 124.195 104.498C124.579 104.035 125.035 103.678 125.563 103.427C126.099 103.17 126.69 103.041 127.338 103.041C127.867 103.041 128.342 103.113 128.765 103.259C129.188 103.398 129.549 103.622 129.846 103.933C130.15 104.243 130.381 104.647 130.54 105.142C130.698 105.631 130.778 106.229 130.778 106.937V113.965H128.934V106.917C128.934 106.355 128.851 105.906 128.686 105.569C128.521 105.225 128.28 104.977 127.962 104.825C127.645 104.666 127.255 104.587 126.793 104.587C126.337 104.587 125.92 104.683 125.544 104.875C125.173 105.066 124.853 105.331 124.582 105.668C124.318 106.005 124.109 106.391 123.957 106.828C123.812 107.257 123.739 107.713 123.739 108.196ZM140.324 111.883V98.7383H142.168V113.965H140.483L140.324 111.883ZM133.107 108.721V108.513C133.107 107.693 133.207 106.95 133.405 106.282C133.61 105.608 133.897 105.03 134.267 104.548C134.644 104.065 135.09 103.695 135.606 103.437C136.128 103.173 136.709 103.041 137.35 103.041C138.024 103.041 138.613 103.16 139.115 103.398C139.624 103.629 140.053 103.969 140.404 104.419C140.76 104.861 141.041 105.397 141.246 106.025C141.451 106.652 141.593 107.363 141.672 108.156V109.068C141.6 109.854 141.458 110.562 141.246 111.189C141.041 111.817 140.76 112.353 140.404 112.795C140.053 113.238 139.624 113.578 139.115 113.816C138.606 114.048 138.011 114.163 137.33 114.163C136.703 114.163 136.128 114.028 135.606 113.757C135.09 113.486 134.644 113.106 134.267 112.617C133.897 112.128 133.61 111.553 133.405 110.892C133.207 110.224 133.107 109.501 133.107 108.721ZM134.951 108.513V108.721C134.951 109.256 135.004 109.759 135.11 110.228C135.222 110.697 135.394 111.11 135.625 111.467C135.857 111.824 136.151 112.105 136.508 112.31C136.864 112.508 137.291 112.607 137.786 112.607C138.394 112.607 138.893 112.478 139.283 112.22C139.68 111.963 139.997 111.622 140.235 111.199C140.473 110.776 140.658 110.317 140.79 109.821V107.432C140.711 107.069 140.595 106.719 140.443 106.381C140.298 106.038 140.106 105.734 139.868 105.469C139.637 105.198 139.349 104.984 139.006 104.825C138.669 104.666 138.269 104.587 137.806 104.587C137.304 104.587 136.871 104.693 136.508 104.904C136.151 105.109 135.857 105.393 135.625 105.757C135.394 106.114 135.222 106.53 135.11 107.006C135.004 107.475 134.951 107.977 134.951 108.513ZM149.514 103.239V104.647H143.715V103.239H149.514ZM145.677 100.632H147.511V111.308C147.511 111.672 147.567 111.946 147.68 112.131C147.792 112.316 147.938 112.438 148.116 112.498C148.294 112.557 148.486 112.587 148.691 112.587C148.843 112.587 149.002 112.574 149.167 112.547C149.339 112.514 149.468 112.488 149.553 112.468L149.563 113.965C149.418 114.011 149.226 114.054 148.988 114.094C148.757 114.14 148.476 114.163 148.146 114.163C147.696 114.163 147.283 114.074 146.907 113.896C146.53 113.717 146.229 113.42 146.005 113.004C145.786 112.581 145.677 112.012 145.677 111.298V100.632ZM153.499 104.924V113.965H151.665V103.239H153.449L153.499 104.924ZM156.85 103.179L156.84 104.885C156.688 104.852 156.542 104.832 156.404 104.825C156.271 104.812 156.119 104.805 155.947 104.805C155.525 104.805 155.151 104.871 154.827 105.004C154.503 105.136 154.229 105.321 154.004 105.559C153.78 105.797 153.601 106.081 153.469 106.411C153.344 106.735 153.261 107.092 153.221 107.482L152.706 107.779C152.706 107.132 152.769 106.524 152.894 105.955C153.026 105.387 153.228 104.885 153.499 104.448C153.77 104.006 154.114 103.662 154.53 103.417C154.953 103.166 155.455 103.041 156.037 103.041C156.169 103.041 156.321 103.057 156.493 103.09C156.665 103.117 156.784 103.146 156.85 103.179ZM162.798 114.163C162.051 114.163 161.373 114.038 160.765 113.787C160.164 113.529 159.645 113.169 159.209 112.706C158.779 112.243 158.449 111.695 158.218 111.061C157.986 110.426 157.871 109.732 157.871 108.979V108.562C157.871 107.69 158 106.913 158.257 106.233C158.515 105.545 158.865 104.964 159.308 104.488C159.751 104.012 160.253 103.652 160.815 103.407C161.377 103.163 161.958 103.041 162.56 103.041C163.326 103.041 163.987 103.173 164.542 103.437C165.104 103.702 165.563 104.072 165.92 104.548C166.277 105.017 166.541 105.572 166.713 106.213C166.885 106.847 166.971 107.541 166.971 108.295V109.118H158.961V107.621H165.137V107.482C165.111 107.006 165.012 106.543 164.84 106.094C164.674 105.645 164.41 105.274 164.047 104.984C163.683 104.693 163.187 104.548 162.56 104.548C162.143 104.548 161.76 104.637 161.41 104.815C161.059 104.987 160.759 105.245 160.508 105.588C160.256 105.932 160.061 106.352 159.923 106.847C159.784 107.343 159.715 107.915 159.715 108.562V108.979C159.715 109.488 159.784 109.967 159.923 110.416C160.068 110.859 160.276 111.249 160.547 111.586C160.825 111.923 161.159 112.187 161.548 112.379C161.945 112.571 162.394 112.666 162.897 112.666C163.544 112.666 164.093 112.534 164.542 112.27C164.992 112.006 165.385 111.652 165.722 111.209L166.832 112.091C166.601 112.442 166.307 112.775 165.95 113.093C165.593 113.41 165.154 113.668 164.631 113.866C164.116 114.064 163.505 114.163 162.798 114.163ZM170.946 105.529V113.965H169.112V103.239H170.847L170.946 105.529ZM170.51 108.196L169.747 108.166C169.753 107.432 169.862 106.755 170.074 106.134C170.285 105.506 170.583 104.961 170.966 104.498C171.349 104.035 171.805 103.678 172.334 103.427C172.869 103.17 173.461 103.041 174.109 103.041C174.637 103.041 175.113 103.113 175.536 103.259C175.959 103.398 176.319 103.622 176.617 103.933C176.921 104.243 177.152 104.647 177.311 105.142C177.469 105.631 177.548 106.229 177.548 106.937V113.965H175.705V106.917C175.705 106.355 175.622 105.906 175.457 105.569C175.292 105.225 175.05 104.977 174.733 104.825C174.416 104.666 174.026 104.587 173.563 104.587C173.107 104.587 172.691 104.683 172.314 104.875C171.944 105.066 171.624 105.331 171.353 105.668C171.088 106.005 170.88 106.391 170.728 106.828C170.583 107.257 170.51 107.713 170.51 108.196ZM187.095 111.883V98.7383H188.939V113.965H187.254L187.095 111.883ZM179.878 108.721V108.513C179.878 107.693 179.977 106.95 180.175 106.282C180.38 105.608 180.668 105.03 181.038 104.548C181.415 104.065 181.861 103.695 182.376 103.437C182.898 103.173 183.48 103.041 184.121 103.041C184.795 103.041 185.383 103.16 185.885 103.398C186.394 103.629 186.824 103.969 187.174 104.419C187.531 104.861 187.812 105.397 188.017 106.025C188.222 106.652 188.364 107.363 188.443 108.156V109.068C188.37 109.854 188.228 110.562 188.017 111.189C187.812 111.817 187.531 112.353 187.174 112.795C186.824 113.238 186.394 113.578 185.885 113.816C185.377 114.048 184.782 114.163 184.101 114.163C183.473 114.163 182.898 114.028 182.376 113.757C181.861 113.486 181.415 113.106 181.038 112.617C180.668 112.128 180.38 111.553 180.175 110.892C179.977 110.224 179.878 109.501 179.878 108.721ZM181.722 108.513V108.721C181.722 109.256 181.775 109.759 181.881 110.228C181.993 110.697 182.165 111.11 182.396 111.467C182.627 111.824 182.921 112.105 183.278 112.31C183.635 112.508 184.061 112.607 184.557 112.607C185.165 112.607 185.664 112.478 186.054 112.22C186.451 111.963 186.768 111.622 187.006 111.199C187.244 110.776 187.429 110.317 187.561 109.821V107.432C187.482 107.069 187.366 106.719 187.214 106.381C187.068 106.038 186.877 105.734 186.639 105.469C186.408 105.198 186.12 104.984 185.776 104.825C185.439 104.666 185.04 104.587 184.577 104.587C184.075 104.587 183.642 104.693 183.278 104.904C182.921 105.109 182.627 105.393 182.396 105.757C182.165 106.114 181.993 106.53 181.881 107.006C181.775 107.475 181.722 107.977 181.722 108.513ZM200.646 107.075V108.582H195.809V107.075H200.646ZM216.924 112.409V113.965H209.281V112.409H216.924ZM209.667 99.5314V113.965H207.754V99.5314H209.667ZM215.913 105.737V107.293H209.281V105.737H215.913ZM216.825 99.5314V101.098H209.281V99.5314H216.825ZM221.008 98.7383V113.965H219.164V98.7383H221.008ZM223.467 108.721V108.493C223.467 107.72 223.579 107.003 223.804 106.342C224.028 105.674 224.352 105.096 224.775 104.607C225.198 104.111 225.71 103.728 226.312 103.457C226.913 103.179 227.587 103.041 228.334 103.041C229.087 103.041 229.765 103.179 230.366 103.457C230.974 103.728 231.49 104.111 231.913 104.607C232.342 105.096 232.669 105.674 232.894 106.342C233.119 107.003 233.231 107.72 233.231 108.493V108.721C233.231 109.494 233.119 110.211 232.894 110.872C232.669 111.533 232.342 112.111 231.913 112.607C231.49 113.096 230.978 113.479 230.376 113.757C229.781 114.028 229.107 114.163 228.354 114.163C227.6 114.163 226.923 114.028 226.322 113.757C225.72 113.479 225.205 113.096 224.775 112.607C224.352 112.111 224.028 111.533 223.804 110.872C223.579 110.211 223.467 109.494 223.467 108.721ZM225.301 108.493V108.721C225.301 109.256 225.363 109.762 225.489 110.238C225.614 110.707 225.803 111.123 226.054 111.487C226.312 111.85 226.632 112.138 227.016 112.349C227.399 112.554 227.845 112.657 228.354 112.657C228.856 112.657 229.296 112.554 229.672 112.349C230.056 112.138 230.373 111.85 230.624 111.487C230.875 111.123 231.063 110.707 231.189 110.238C231.321 109.762 231.387 109.256 231.387 108.721V108.493C231.387 107.964 231.321 107.465 231.189 106.996C231.063 106.52 230.872 106.101 230.614 105.737C230.363 105.367 230.046 105.076 229.662 104.865C229.286 104.653 228.843 104.548 228.334 104.548C227.832 104.548 227.389 104.653 227.006 104.865C226.629 105.076 226.312 105.367 226.054 105.737C225.803 106.101 225.614 106.52 225.489 106.996C225.363 107.465 225.301 107.964 225.301 108.493ZM237.365 105.529V113.965H235.531V103.239H237.266L237.365 105.529ZM236.929 108.196L236.165 108.166C236.172 107.432 236.281 106.755 236.493 106.134C236.704 105.506 237.001 104.961 237.385 104.498C237.768 104.035 238.224 103.678 238.753 103.427C239.288 103.17 239.88 103.041 240.527 103.041C241.056 103.041 241.532 103.113 241.955 103.259C242.378 103.398 242.738 103.622 243.035 103.933C243.339 104.243 243.571 104.647 243.729 105.142C243.888 105.631 243.967 106.229 243.967 106.937V113.965H242.123V106.917C242.123 106.355 242.041 105.906 241.875 105.569C241.71 105.225 241.469 104.977 241.152 104.825C240.835 104.666 240.445 104.587 239.982 104.587C239.526 104.587 239.11 104.683 238.733 104.875C238.363 105.066 238.042 105.331 237.771 105.668C237.507 106.005 237.299 106.391 237.147 106.828C237.001 107.257 236.929 107.713 236.929 108.196ZM252.671 99.5314H254.525L259.253 111.298L263.972 99.5314H265.836L259.967 113.965H258.52L252.671 99.5314ZM252.066 99.5314H253.702L253.97 108.334V113.965H252.066V99.5314ZM264.795 99.5314H266.431V113.965H264.527V108.334L264.795 99.5314ZM276.076 111.487V103.239H277.92V113.965H276.165L276.076 111.487ZM276.423 109.227L277.186 109.207C277.186 109.92 277.11 110.581 276.958 111.189C276.813 111.791 276.575 112.313 276.245 112.756C275.914 113.198 275.481 113.545 274.946 113.797C274.411 114.041 273.76 114.163 272.993 114.163C272.471 114.163 271.992 114.087 271.556 113.935C271.126 113.783 270.756 113.549 270.445 113.232C270.135 112.914 269.894 112.501 269.722 111.992C269.557 111.483 269.474 110.872 269.474 110.158V103.239H271.308V110.178C271.308 110.661 271.361 111.061 271.467 111.378C271.579 111.688 271.728 111.936 271.913 112.121C272.104 112.3 272.316 112.425 272.547 112.498C272.785 112.571 273.03 112.607 273.281 112.607C274.06 112.607 274.678 112.458 275.134 112.161C275.59 111.857 275.918 111.45 276.116 110.942C276.321 110.426 276.423 109.854 276.423 109.227ZM286.961 111.12C286.961 110.856 286.901 110.611 286.782 110.386C286.67 110.155 286.436 109.947 286.079 109.762C285.728 109.57 285.2 109.405 284.493 109.266C283.898 109.141 283.359 108.992 282.877 108.82C282.401 108.648 281.994 108.44 281.657 108.196C281.327 107.951 281.072 107.664 280.894 107.333C280.716 107.003 280.626 106.616 280.626 106.173C280.626 105.75 280.719 105.35 280.904 104.974C281.096 104.597 281.363 104.263 281.707 103.973C282.057 103.682 282.477 103.454 282.966 103.289C283.455 103.123 284 103.041 284.602 103.041C285.461 103.041 286.194 103.193 286.802 103.497C287.41 103.801 287.876 104.207 288.2 104.716C288.524 105.218 288.686 105.777 288.686 106.391H286.852C286.852 106.094 286.763 105.806 286.584 105.529C286.412 105.245 286.158 105.01 285.821 104.825C285.49 104.64 285.084 104.548 284.602 104.548C284.093 104.548 283.68 104.627 283.362 104.785C283.052 104.937 282.824 105.132 282.678 105.37C282.54 105.608 282.47 105.859 282.47 106.124C282.47 106.322 282.503 106.5 282.569 106.659C282.642 106.811 282.768 106.953 282.946 107.085C283.124 107.211 283.376 107.33 283.699 107.442C284.023 107.555 284.436 107.667 284.939 107.779C285.818 107.977 286.541 108.215 287.11 108.493C287.678 108.771 288.101 109.111 288.379 109.514C288.656 109.917 288.795 110.406 288.795 110.981C288.795 111.45 288.696 111.88 288.497 112.27C288.306 112.66 288.025 112.997 287.655 113.281C287.291 113.559 286.855 113.777 286.346 113.935C285.844 114.087 285.279 114.163 284.651 114.163C283.706 114.163 282.906 113.995 282.252 113.658C281.598 113.321 281.102 112.885 280.765 112.349C280.428 111.814 280.26 111.249 280.26 110.654H282.103C282.13 111.156 282.275 111.556 282.54 111.854C282.804 112.144 283.128 112.353 283.511 112.478C283.894 112.597 284.274 112.657 284.651 112.657C285.153 112.657 285.573 112.59 285.91 112.458C286.254 112.326 286.515 112.144 286.693 111.913C286.872 111.682 286.961 111.417 286.961 111.12ZM293.048 98.7383V113.965H291.204V98.7383H293.048ZM299.6 103.239L294.921 108.245L292.304 110.961L292.155 109.008L294.029 106.768L297.36 103.239H299.6ZM297.925 113.965L294.098 108.85L295.05 107.214L300.086 113.965H297.925Z" fill="white"/>
<rect x="248.812" y="72" width="72.1861" height="69.9302" fill="url(#paint0_linear_0_1)"/>
<rect width="2.25189" height="16.8892" rx="0.563953" transform="matrix(0.707101 -0.707112 0.707101 0.707112 289.418 101.79)" fill="white"/>
<rect width="2.25189" height="16.8892" rx="0.563953" transform="matrix(-0.707101 -0.707112 -0.707101 0.707112 302.953 101.79)" fill="white"/>
<g clip-path="url(#clip0_0_1)">
<path d="M48.7745 183.024C47.5065 181.876 47.4309 180.417 47.5357 179.063C47.7066 177.182 48.0807 175.299 48.6353 173.522C51.4049 165.402 56.8535 159.54 64.4647 155.715C66.4033 154.75 68.5121 154.046 70.7743 153.148C69.1783 151.525 66.77 151.083 65.0309 149.497C65.9224 149.009 66.6672 149.325 67.2916 149.57C69.8496 150.585 72.4201 151.647 74.9553 152.77C76.169 153.32 76.4266 153.916 75.7927 155C74.5021 157.275 72.6428 158.934 70.25 159.917C70.1546 159.942 69.9741 159.836 69.6857 159.707C69.6739 157.517 72.4218 157.309 72.9141 155.293C69.4235 155.389 66.4254 156.784 63.5976 158.441C60.6391 160.183 57.8986 162.175 55.6791 164.795C53.4948 167.355 51.9599 170.256 50.6305 173.358C49.2409 176.424 48.7017 179.626 48.7745 183.024Z" fill="black"/>
</g>
<path d="M22.6332 189.538C21.9839 189.597 21.38 189.789 20.9376 190.309C20.7654 190.521 20.695 191.048 20.7129 191.361C20.7389 191.865 21.235 192.271 21.637 192.579C21.9682 192.826 22.7758 193.262 22.6936 193.776C21.9543 194.746 21.5049 193.801 20.8516 194.064C20.7306 194.109 20.5841 194.239 20.5579 194.346C20.4379 194.956 20.6028 195.115 21.6181 195.363C22.0481 195.468 22.7099 195.385 23.0503 195.163C23.5244 194.861 23.9182 194.364 23.9553 193.705C23.9968 192.818 23.2509 192.299 22.7665 191.905C22.6602 191.819 22.0425 191.495 22.0731 191.159C22.1047 190.776 22.4907 190.675 23.147 190.868C23.3849 190.981 23.9285 191.412 24.1722 191.225C24.2936 191.155 24.5623 190.92 24.5325 190.608C24.4927 190.187 24.0308 189.878 23.5546 189.676C23.3166 189.576 22.6934 189.527 22.6332 189.538ZM27.2592 189.629C26.8741 189.682 26.6795 189.81 26.3873 190.02C25.9243 190.371 25.8617 190.502 25.5773 190.928C25.034 191.698 24.8748 193.075 25.4934 193.963C25.8342 194.33 26.5225 194.728 27.1332 194.8C27.8634 194.898 28.4193 194.705 28.8812 194.414C29.6844 193.854 30.2545 192.941 30.1412 191.991C30.1235 190.454 29.005 189.352 27.2592 189.629ZM26.3941 192.721C26.289 191.963 26.8869 190.858 27.5371 190.751C28.3801 190.612 29.0822 191.526 28.8463 192.529C28.7277 193.067 28.2028 193.513 27.8288 193.613C27.0329 193.802 26.4785 193.311 26.3941 192.721ZM32.2571 186.823C31.4363 187.059 31.494 188.393 31.3904 189.387C31.242 190.824 31.077 191.889 30.8799 193.361C30.8085 193.936 30.4058 195.489 30.8093 195.725C31.1529 195.947 31.6757 195.61 31.8272 195.229C31.9282 194.978 32.0669 194.033 32.1097 193.686C32.3005 191.925 32.523 190.381 32.6912 188.548C32.7651 187.842 33.1019 186.588 32.2571 186.823ZM34.5636 190.374C33.5208 190.305 33.4073 191.191 33.3411 192.114C33.322 192.473 33.2936 193.301 33.3336 193.71C33.424 194.6 34.0034 195.043 34.6482 195.212C36.4062 195.535 37.1069 194.697 37.5175 193.348C37.6712 192.859 37.7538 192.321 37.7753 191.841C37.7987 191.266 37.7945 190.257 37.4506 190.046C37.2373 189.91 36.647 190.019 36.5439 190.377C36.4402 190.771 36.505 191.744 36.4466 192.271C36.3736 192.93 36.0278 194.027 35.5465 194.09C34.1486 194.374 34.6083 192.367 34.723 191.421C34.7783 191.05 34.8835 190.584 34.5636 190.374ZM41.5043 190.042C41.3884 189.224 41.6108 188.904 41.7073 188.27C41.8236 187.852 41.9017 187.542 41.3011 187.566C40.3524 187.595 40.4327 188.389 40.311 189.083C40.2576 189.358 40.1834 190.076 39.9766 190.216C39.782 190.344 38.9544 190.316 38.7013 190.371C38.4594 190.462 38.2507 190.698 38.2103 190.926C38.1462 191.128 38.2229 191.502 38.4722 191.639C38.8169 191.814 39.664 191.458 39.9218 191.775C39.8601 192.47 39.8372 193.022 39.7562 193.477C39.74 193.692 39.578 194.601 39.5378 194.817C39.51 195.008 39.2257 196.035 39.2939 196.228C39.3746 196.398 39.7563 196.513 40.021 196.482C40.6225 196.41 40.7208 195.08 40.8128 194.674C40.8536 194.434 40.9918 193.513 41.0205 193.273C41.0622 192.986 41.1729 191.632 41.4046 191.445C41.6244 191.257 42.6065 191.36 42.9822 191.176C43.2368 191.049 43.3876 190.704 43.322 190.378C43.2132 189.812 41.7868 190.324 41.5043 190.042ZM45.0528 188.564C44.7274 188.63 44.4326 188.972 44.4615 189.333C44.5193 190.054 45.8071 189.875 45.8095 189.143C45.806 188.711 45.4744 188.488 45.0528 188.564ZM44.9046 190.602C44.3277 190.638 44.1348 191.294 44.0387 191.905C43.9271 192.695 43.8021 193.556 43.6898 194.382C43.6205 194.849 43.5031 195.327 43.703 195.535C43.9851 195.84 44.7337 195.615 44.9082 195.283C45.0332 195.033 45.0105 194.36 45.043 193.929C45.0941 193.162 45.2276 192.48 45.373 191.799C45.4512 191.488 45.5651 191.191 45.5322 191.034C45.4783 190.721 45.073 190.581 44.9046 190.602ZM48.2668 190.044C47.8817 190.096 47.6872 190.224 47.395 190.435C46.932 190.786 46.8694 190.916 46.5849 191.343C46.0416 192.112 45.8824 193.489 46.501 194.378C46.8419 194.745 47.5302 195.142 48.1408 195.214C48.871 195.313 49.427 195.12 49.8888 194.829C50.692 194.268 51.2621 193.355 51.1488 192.405C51.1311 190.868 50.0127 189.766 48.2668 190.044ZM47.4017 193.135C47.2966 192.377 47.8945 191.273 48.5448 191.165C49.3877 191.026 50.0898 191.94 49.854 192.944C49.7353 193.481 49.2104 193.927 48.8364 194.028C48.0405 194.216 47.4861 193.725 47.4017 193.135ZM53.3888 192.509C53.2482 191.726 53.6977 190.235 52.7343 190.396C52.1803 190.493 52.1995 191.346 52.162 192.029C52.1092 192.88 51.9748 193.61 51.8743 194.448C51.7754 195.202 51.616 195.979 52.4834 195.816C52.8085 195.762 53.225 194.726 53.4361 194.371C53.8078 193.778 53.7236 193.788 54.3391 193.008C54.5857 192.677 54.8347 192.226 55.2075 192.185C55.2689 192.726 55.2023 193.061 55.1189 193.636C55.0233 194.222 54.9508 194.856 54.9752 195.445C55.2426 195.882 56.0622 195.707 56.2263 195.302C56.2769 195.171 56.2345 194.882 56.2388 194.666C56.2681 193.79 56.595 192.428 56.5393 191.599C56.5109 191.215 56.3277 190.767 56.1854 190.68C55.7236 190.359 55.2493 190.674 54.9329 190.895C54.5188 191.199 54.1753 191.577 53.9036 191.967C53.7676 192.169 53.6088 192.31 53.3888 192.509ZM62.8673 193.488C63.231 193.304 63.6848 193.42 64.1423 193.345C64.5759 193.27 64.6764 192.432 64.1401 192.241C63.5438 192.049 63.3358 192.249 62.9549 192.086C62.7691 191.77 62.942 190.309 63.0211 189.951C63.1526 189.365 63.3546 188.253 63.9185 188.264C64.2544 188.271 64.3297 188.716 64.4329 188.958C64.5361 189.2 64.637 189.563 64.8647 189.579C65.139 189.668 65.5488 189.58 65.6517 189.234C65.7522 189.008 65.7146 188.48 65.4839 188.007C65.1725 187.365 64.6413 186.91 63.81 187.074C62.9546 187.237 62.4983 187.852 62.1216 188.697C61.7828 189.446 61.674 190.092 61.5598 191.014C61.5188 191.265 61.5806 191.783 61.4698 191.925C61.3343 192.102 61.4677 192.032 61.1315 192.038C60.8193 192.044 60.4679 192.217 60.4142 192.504C60.3756 192.635 60.3243 192.802 60.4887 192.985C60.9003 193.414 60.8691 193.173 61.4541 193.328C61.6084 194.028 61.3685 195.235 61.5237 195.886C61.6239 196.284 62.499 196.338 62.6764 195.861C62.8802 195.265 62.7049 193.809 62.8673 193.488ZM67.517 190.423C67.1319 190.476 66.9373 190.604 66.6451 190.814C66.1821 191.165 66.1195 191.296 65.8351 191.723C65.2918 192.492 65.1326 193.869 65.7512 194.757C66.092 195.124 66.7803 195.522 67.391 195.594C68.1212 195.692 68.6771 195.499 69.139 195.208C69.9422 194.648 70.5123 193.735 70.399 192.785C70.3813 191.248 69.2628 190.146 67.517 190.423ZM66.6519 193.515C66.5468 192.757 67.1447 191.652 67.7949 191.545C68.6379 191.406 69.34 192.32 69.1041 193.323C68.9855 193.861 68.4606 194.307 68.0865 194.407C67.2907 194.596 66.7363 194.105 66.6519 193.515ZM72.6373 190.536C72.5317 190.414 72.3412 190.339 72.161 190.347C71.5126 190.358 71.5281 190.791 71.4026 191.676C71.2755 192.646 71.2075 194.265 71.1041 195.247C71.0632 195.498 71.0097 195.773 71.0549 195.918C71.112 196.063 71.3611 196.212 71.5409 196.228C71.9963 196.261 72.2247 196.241 72.3528 195.836C72.5067 195.335 72.5214 193.979 72.5685 193.416C72.5726 193.212 73.3993 192.676 73.894 192.542C74.0994 192.474 74.6179 192.352 74.8711 192.297C75.1122 192.242 75.5615 191.974 75.499 191.493C75.4555 191.264 75.1707 191.103 74.9192 191.074C74.4885 191.005 73.9928 191.187 73.6665 191.301C73.3642 191.415 72.9487 191.791 72.6506 191.689C72.6824 191.294 72.7613 190.947 72.6373 190.536ZM12.8233 207.912C13.3848 208.043 13.7257 207.798 13.8076 207.295C13.9581 206.362 13.9004 205.029 13.9603 203.818C14.0375 202.943 14.1661 201.901 14.2563 200.979C14.342 200.285 14.632 198.97 14.022 198.862C13.8312 198.798 13.4339 198.862 13.3468 199.017C13.0588 199.623 13.3012 201.332 12.7897 201.706C12.0218 201.691 11.3481 201.774 10.7298 202.086C10.1717 202.387 9.77907 202.823 9.49247 203.358C9.25623 203.773 9.11053 204.466 9.26619 205.093C9.42232 205.697 10.0466 206.297 10.5688 206.595C11.1388 206.907 11.7754 206.883 12.4324 207.04C12.5834 207.295 12.5499 207.775 12.8233 207.912ZM12.6753 204.465C12.6319 204.836 12.6288 205.604 12.5036 205.865C11.9371 205.986 11.0691 205.573 10.7301 205.11C10.1694 204.331 10.7805 203.167 11.67 203.1C12.2228 203.063 12.5136 202.925 12.6891 203.157C12.7681 203.41 12.7188 204.081 12.6753 204.465ZM16.2396 199.998C15.9143 200.064 15.6195 200.406 15.6484 200.766C15.7062 201.488 16.9939 201.309 16.9964 200.577C16.9929 200.145 16.6612 199.922 16.2396 199.998ZM16.0914 202.035C15.5146 202.072 15.3216 202.728 15.2256 203.339C15.114 204.129 14.9889 204.99 14.8766 205.816C14.8074 206.283 14.69 206.761 14.8899 206.969C15.1719 207.274 15.9205 207.049 16.0951 206.716C16.22 206.467 16.1973 205.794 16.2298 205.363C16.281 204.596 16.4144 203.914 16.5599 203.233C16.638 202.922 16.7519 202.625 16.719 202.468C16.6652 202.155 16.2599 202.015 16.0914 202.035ZM19.5377 201.479C18.8884 201.539 18.2845 201.731 17.8422 202.25C17.6699 202.463 17.5995 202.989 17.6174 203.302C17.6434 203.806 18.1395 204.212 18.5415 204.52C18.8727 204.767 19.6803 205.203 19.5981 205.717C18.8588 206.687 18.4094 205.742 17.7561 206.005C17.6352 206.051 17.4886 206.18 17.4625 206.287C17.3424 206.897 17.5073 207.056 18.5226 207.304C18.9526 207.409 19.6144 207.326 19.9548 207.105C20.4289 206.802 20.8227 206.306 20.8598 205.646C20.9013 204.759 20.1554 204.24 19.671 203.846C19.5647 203.76 18.947 203.436 18.9776 203.101C19.0092 202.717 19.3952 202.617 20.0515 202.81C20.2894 202.922 20.833 203.353 21.0767 203.166C21.1981 203.096 21.4668 202.862 21.437 202.549C21.3973 202.128 20.9353 201.819 20.4591 201.618C20.2211 201.517 19.5979 201.469 19.5377 201.479ZM26.4856 206.165C26.2231 205.476 25.6874 205.861 25.0016 205.944C24.0752 206.058 23.5093 205.542 23.3063 204.878C23.1151 204.226 23.8758 203.389 24.7418 203.298C25.0664 203.269 25.388 203.395 25.7973 203.331C26.1222 203.29 26.43 202.9 26.3312 202.43C26.2315 202.007 25.0082 201.959 24.6234 202C23.5894 202.087 22.738 202.659 22.2759 203.574C22.0619 204.074 21.9151 204.827 22.0721 205.382C22.4703 206.494 23.3098 207.135 24.5451 207.183C25.6604 207.229 26.7139 206.758 26.4856 206.165ZM29.3776 201.673C28.9924 201.726 28.7979 201.854 28.5057 202.064C28.0427 202.415 27.9801 202.546 27.6956 202.973C27.1523 203.742 26.9931 205.119 27.6117 206.007C27.9526 206.374 28.6409 206.772 29.2516 206.844C29.9818 206.942 30.5377 206.749 30.9995 206.458C31.8027 205.898 32.3728 204.985 32.2595 204.035C32.2418 202.498 31.1234 201.396 29.3776 201.673ZM28.5124 204.765C28.4073 204.007 29.0052 202.902 29.6555 202.795C30.4984 202.656 31.2005 203.57 30.9647 204.573C30.846 205.111 30.3211 205.557 29.9471 205.657C29.1512 205.846 28.5968 205.355 28.5124 204.765ZM34.7581 205.632C34.6859 205.031 34.5007 204.079 34.3683 203.488C34.3022 203.187 34.195 202.537 34.0426 202.354C33.7728 202.036 33.1694 202.204 32.9722 202.465C32.9228 202.536 32.7976 202.797 32.9107 203.147C32.9704 203.773 33.5866 205.393 33.8412 206.478C33.9508 207.009 34.014 207.454 34.3843 207.545C34.9926 207.737 35.4531 206.906 35.7136 206.479C36.57 205.044 36.9072 204.378 37.3416 203.655C37.5776 203.251 37.9314 202.958 37.7621 202.415C37.6391 201.956 37.1494 201.839 36.7965 202.084C36.3829 202.364 36.2393 202.949 35.9529 203.471C35.5449 204.076 35.1793 204.969 34.7581 205.632ZM39.5419 205.859C39.8317 205.768 40.3265 205.634 40.7005 205.534C41.2555 205.388 41.5348 205.226 42.0784 205.045C42.4045 204.943 42.6405 204.54 42.6229 204.215C42.6272 203.999 42.4687 203.516 42.3875 203.37C41.8955 202.148 40.9186 201.781 39.7348 202.166C39.252 202.3 38.7029 202.758 38.4043 203.292C38.01 203.812 37.8631 204.565 38.0707 205.602C38.3752 206.592 38.6803 206.946 39.6443 207.361C40.2498 207.697 41.4286 207.564 42.0493 207.132C42.2565 206.968 42.3239 206.598 42.0654 206.317C41.6149 206.032 41.2662 206.673 40.4656 206.489C39.9399 206.371 39.6301 206.257 39.5419 205.859ZM39.5866 203.591C40.3545 202.994 41.0735 203.056 41.3674 203.974C41.3034 204.177 40.9514 204.374 40.6743 204.429C40.2527 204.504 39.5161 204.73 39.3009 204.69C39.2092 204.472 39.2697 203.837 39.5866 203.591ZM44.9021 201.992C44.7965 201.87 44.606 201.794 44.4258 201.802C43.7774 201.813 43.7929 202.246 43.6674 203.132C43.5402 204.101 43.4723 205.72 43.3689 206.702C43.3279 206.954 43.2745 207.229 43.3197 207.374C43.3768 207.519 43.6259 207.668 43.8056 207.683C44.2611 207.716 44.4895 207.697 44.6175 207.291C44.7714 206.79 44.7862 205.434 44.8333 204.871C44.8373 204.667 45.6641 204.131 46.1588 203.997C46.3642 203.929 46.8827 203.807 47.1358 203.752C47.377 203.697 47.8263 203.43 47.7638 202.948C47.7203 202.719 47.4354 202.558 47.184 202.529C46.7532 202.46 46.2575 202.643 45.9312 202.756C45.6289 202.87 45.2134 203.246 44.9154 203.144C44.9472 202.749 45.026 202.402 44.9021 201.992ZM52.4997 203.522C52.9429 203.567 53.4574 203.037 54.3601 202.91C54.6353 202.952 55.031 203.584 54.723 203.986C54.5263 204.222 53.4959 204.13 52.9045 204.298C52.5664 204.399 52.1415 204.643 51.9702 204.808C51.7011 205.066 51.3808 205.48 51.5003 206.119C51.5308 206.395 51.7658 206.652 51.978 206.848C52.4948 207.423 53.0304 207.649 53.7328 207.939C53.9351 208.027 54.4254 208.121 54.63 208.089C54.9187 208.058 55.2391 207.633 55.3279 207.394C55.5326 206.75 55.6656 206.093 55.8113 205.4C55.9194 204.79 56.1164 203.929 55.9995 203.159C55.9159 202.533 55.5193 201.949 55.0905 201.785C54.3379 201.602 53.7451 201.842 52.9816 202.211C52.5944 202.371 52.134 202.59 52.1845 203.072C52.2162 203.288 52.2734 203.433 52.4997 203.522ZM53.7741 205.239C54.0023 205.232 54.4594 205.181 54.6127 205.316C54.6044 205.736 54.5519 206.575 54.1781 206.664C53.6038 206.568 52.721 206.299 52.7227 205.603C52.9074 205.366 53.3177 205.254 53.7741 205.239ZM63.1657 202.472C63.0498 201.654 63.2722 201.334 63.3687 200.7C63.485 200.282 63.5631 199.971 62.9625 199.996C62.0138 200.025 62.0941 200.819 61.9724 201.512C61.919 201.787 61.8448 202.506 61.638 202.646C61.4434 202.774 60.6158 202.746 60.3627 202.801C60.1208 202.892 59.9122 203.128 59.8717 203.355C59.8076 203.558 59.8843 203.932 60.1336 204.069C60.4783 204.243 61.3254 203.888 61.5832 204.205C61.5215 204.9 61.4986 205.452 61.4176 205.906C61.4014 206.122 61.2394 207.031 61.1992 207.246C61.1714 207.438 60.8871 208.464 60.9553 208.658C61.036 208.827 61.4178 208.943 61.6824 208.912C62.284 208.84 62.3822 207.51 62.4742 207.103C62.515 206.864 62.6532 205.943 62.6819 205.703C62.7236 205.416 62.8343 204.062 63.066 203.874C63.2858 203.687 64.2679 203.79 64.6437 203.605C64.8982 203.478 65.049 203.133 64.9835 202.808C64.8746 202.242 63.4482 202.754 63.1657 202.472ZM67.058 202.429C66.9523 202.307 66.7618 202.231 66.5816 202.239C65.9333 202.251 65.9487 202.683 65.8232 203.569C65.6961 204.538 65.6281 206.157 65.5248 207.139C65.4838 207.391 65.4304 207.666 65.4755 207.811C65.5327 207.956 65.7818 208.105 65.9615 208.12C66.4169 208.153 66.6454 208.134 66.7734 207.728C66.9273 207.227 66.942 205.871 66.9892 205.308C66.9932 205.104 67.8199 204.568 68.3147 204.434C68.52 204.366 69.0385 204.244 69.2917 204.189C69.5328 204.134 69.9822 203.867 69.9196 203.385C69.8762 203.156 69.5913 202.995 69.3398 202.966C68.9091 202.897 68.4134 203.08 68.0871 203.193C67.7848 203.307 67.3693 203.683 67.0712 203.581C67.103 203.186 67.1819 202.839 67.058 202.429ZM71.6919 206.493C71.9817 206.403 72.4765 206.268 72.8505 206.168C73.4055 206.023 73.6848 205.86 74.2284 205.679C74.5545 205.577 74.7905 205.174 74.7729 204.849C74.7772 204.633 74.6187 204.15 74.5375 204.005C74.0455 202.783 73.0686 202.415 71.8848 202.8C71.402 202.935 70.8529 203.392 70.5543 203.926C70.16 204.446 70.0131 205.2 70.2207 206.236C70.5252 207.226 70.8303 207.58 71.7943 207.995C72.3998 208.331 73.5786 208.198 74.1993 207.767C74.4065 207.603 74.4739 207.232 74.2153 206.951C73.7649 206.666 73.4162 207.307 72.6156 207.123C72.0899 207.005 71.7801 206.891 71.6919 206.493ZM71.7366 204.225C72.5045 203.628 73.2235 203.691 73.5174 204.609C73.4534 204.811 73.1014 205.008 72.8243 205.063C72.4027 205.139 71.6661 205.364 71.4509 205.324C71.3592 205.106 71.4197 204.471 71.7366 204.225ZM77.0537 204.978C76.9131 204.195 77.3626 202.704 76.3993 202.865C75.8452 202.962 75.8644 203.815 75.8269 204.498C75.7741 205.349 75.6397 206.079 75.5392 206.917C75.4403 207.671 75.2809 208.448 76.1483 208.285C76.4734 208.232 76.8899 207.196 77.101 206.84C77.4728 206.247 77.3886 206.257 78.0041 205.477C78.2506 205.146 78.4996 204.695 78.8725 204.654C78.9338 205.196 78.8672 205.53 78.7838 206.105C78.6883 206.691 78.6157 207.326 78.6401 207.914C78.9075 208.352 79.7272 208.176 79.8912 207.771C79.9418 207.64 79.8995 207.351 79.9037 207.135C79.933 206.259 80.2599 204.898 80.2043 204.068C80.1759 203.684 79.9926 203.236 79.8503 203.149C79.3886 202.828 78.9143 203.143 78.5978 203.365C78.1838 203.668 77.8403 204.046 77.5685 204.436C77.4325 204.638 77.2737 204.779 77.0537 204.978ZM84.5047 209.326C85.0662 209.457 85.4071 209.212 85.489 208.709C85.6394 207.776 85.5817 206.443 85.6416 205.232C85.7189 204.357 85.8475 203.316 85.9377 202.393C86.0234 201.699 86.3134 200.384 85.7034 200.276C85.5126 200.212 85.1153 200.276 85.0282 200.431C84.7402 201.037 84.9825 202.746 84.471 203.12C83.7032 203.105 83.0294 203.188 82.4112 203.5C81.8531 203.801 81.4604 204.237 81.1738 204.772C80.9376 205.187 80.7919 205.88 80.9476 206.507C81.1037 207.111 81.728 207.711 82.2502 208.009C82.8202 208.321 83.4567 208.297 84.1138 208.454C84.2648 208.709 84.2313 209.189 84.5047 209.326ZM84.3566 205.879C84.3133 206.25 84.3101 207.018 84.185 207.279C83.6185 207.4 82.7504 206.987 82.4115 206.524C81.8508 205.745 82.4618 204.581 83.3513 204.515C83.9042 204.477 84.195 204.339 84.3704 204.571C84.4494 204.824 84.4002 205.495 84.3566 205.879Z" fill="black"/>
<g clip-path="url(#clip1_0_1)">
<path d="M284.351 37.0051C283.475 35.5357 282.059 35.174 280.711 35.01C278.834 34.8069 276.914 34.8027 275.062 34.9963C266.555 36.1116 259.735 40.2985 254.485 47.0067C253.157 48.717 252.051 50.6458 250.726 52.6868C249.449 50.8022 249.49 48.3541 248.278 46.3366C247.624 47.1145 247.786 47.9068 247.903 48.5673C248.394 51.2751 248.93 54.0045 249.531 56.7113C249.831 58.0096 250.364 58.3795 251.552 57.9716C254.037 57.1547 256.03 55.6587 257.464 53.5064C257.508 53.4178 257.439 53.22 257.37 52.9119C255.225 52.4687 254.48 55.1218 252.406 55.2072C253.188 51.804 255.147 49.1396 257.329 46.6937C259.62 44.1365 262.112 41.8421 265.118 40.1824C268.059 38.5454 271.205 37.6121 274.508 36.9199C277.788 36.1618 281.033 36.264 284.351 37.0051Z" fill="black"/>
</g>
<path d="M258.672 5.05708C258.265 4.56784 258.216 3.88698 257.967 3.14899C257.866 2.84877 257.745 2.51024 257.613 2.15852C257.55 1.95879 257.399 1.32757 257.255 1.20385C256.789 0.817011 255.988 1.43268 255.938 1.91005C255.909 2.18454 256.071 2.4791 256.184 2.78057C256.288 3.05693 256.41 3.38352 256.494 3.62156C256.677 4.17176 257.008 4.7012 257.152 5.28344C257.232 5.55728 257.409 5.81729 257.489 6.09113C257.617 6.59925 257.557 7.0515 257.452 7.70412C257.365 8.31026 256.795 9.831 257.513 10.003C257.915 10.0814 258.266 9.84082 258.37 9.64672C258.421 9.50727 258.502 9.0814 258.551 8.84522C258.645 8.40867 258.732 8.04373 258.79 7.60341C258.837 7.27051 258.916 6.74791 259 6.52743C259.07 6.31763 259.248 6.11912 259.428 5.89674C259.57 5.69447 259.711 5.50413 259.863 5.31504C260.626 4.36962 261.021 4.06116 261.847 3.2068C262.023 3.02022 262.65 2.56726 262.565 2.11189C262.484 1.62072 261.869 1.61642 261.662 1.7515C261.571 1.81432 261.345 2.12841 261.234 2.26159C261.108 2.42932 260.946 2.59328 260.825 2.71327C260.32 3.26357 259.908 3.73911 259.428 4.29192C259.195 4.55702 259.012 4.92386 258.672 5.05708ZM263.028 4.45316C262.64 4.4727 262.436 4.5839 262.127 4.76861C261.635 5.07898 261.562 5.20398 261.242 5.60477C260.636 6.3253 260.36 7.68395 260.901 8.62163C261.21 9.01603 261.862 9.47068 262.464 9.59432C263.183 9.75438 263.754 9.60919 264.238 9.3585C265.086 8.86844 265.732 8.00721 265.7 7.0506C265.812 5.518 264.792 4.32475 263.028 4.45316ZM261.904 7.4601C261.864 6.69569 262.553 5.64602 263.21 5.59441C264.062 5.52707 264.684 6.4974 264.364 7.4773C264.2 8.00305 263.639 8.40261 263.258 8.47114C262.449 8.59123 261.938 8.05491 261.904 7.4601ZM267.761 5.55387C266.728 5.397 266.539 6.2701 266.395 7.18402C266.345 7.5408 266.247 8.36301 266.252 8.77379C266.267 9.66821 266.806 10.1593 267.434 10.3822C269.159 10.853 269.928 10.0772 270.452 8.76873C270.646 8.29448 270.774 7.76496 270.836 7.28885C270.909 6.71726 270.99 5.71227 270.665 5.47301C270.464 5.31916 269.867 5.37704 269.734 5.72503C269.597 6.10883 269.579 7.08428 269.476 7.60437C269.347 8.25448 268.91 9.31857 268.425 9.34C267.008 9.50479 267.636 7.54373 267.831 6.61096C267.917 6.24602 268.062 5.79062 267.761 5.55387ZM276.405 3.22866C275.891 3.29532 275.558 4.16531 276.117 4.35679C276.571 4.51312 277.217 4.1104 277.152 3.58468C277.111 3.2788 276.773 3.17082 276.405 3.22866ZM276.045 6.07468C275.569 6.13317 275.502 6.65702 275.403 7.02071C275.362 7.18528 275.229 7.8712 275.183 8.19217C275.077 9.08599 274.897 9.76688 274.685 10.6375C274.377 11.8479 274.076 13.4452 273.174 13.7607C272.899 13.8524 271.978 13.7797 271.9 14.2904C271.823 14.7891 272.479 15.0993 273.004 15.0339C273.187 15.0169 273.483 14.9515 273.673 14.8749C273.887 14.7888 274.106 14.6549 274.235 14.572C274.52 14.3848 275.03 13.7868 275.195 13.4783C275.347 13.1806 275.413 12.7773 275.551 12.3816C275.659 12.043 275.746 11.6781 275.831 11.3251C275.993 10.5939 276.206 9.832 276.329 9.12096C276.423 8.56382 276.514 8.04247 276.617 7.52238C276.674 7.2146 276.851 6.78683 276.745 6.42568C276.674 6.17696 276.364 6.02375 276.045 6.07468ZM278.833 6.71756C277.799 6.5607 277.611 7.4338 277.467 8.34772C277.417 8.70449 277.319 9.5267 277.324 9.93748C277.339 10.8319 277.878 11.323 278.506 11.5459C280.231 12.0167 281 11.2409 281.523 9.93243C281.718 9.45818 281.846 8.92866 281.908 8.45254C281.98 7.88095 282.062 6.87597 281.737 6.63671C281.536 6.48285 280.939 6.54073 280.806 6.88873C280.669 7.27252 280.651 8.24798 280.548 8.76807C280.419 9.41818 279.982 10.4823 279.497 10.5037C278.08 10.6685 278.708 8.70743 278.903 7.77466C278.989 7.40971 279.134 6.95431 278.833 6.71756ZM284.859 6.74769C284.207 6.75156 283.589 6.89172 283.105 7.37167C282.915 7.56893 282.8 8.08777 282.791 8.40057C282.774 8.90557 283.234 9.35208 283.609 9.69309C283.918 9.96689 284.685 10.4699 284.56 10.9755C283.741 11.8789 283.373 10.8991 282.7 11.1058C282.576 11.141 282.419 11.2573 282.384 11.3622C282.212 11.9595 282.363 12.1322 283.354 12.4656C283.773 12.6062 284.44 12.5797 284.798 12.3881C285.296 12.1267 285.73 11.6656 285.823 11.0118C285.94 10.1311 285.241 9.55088 284.791 9.11755C284.693 9.02272 284.105 8.64721 284.164 8.31556C284.228 7.93617 284.621 7.8689 285.258 8.1169C285.486 8.2494 285.991 8.7248 286.25 8.55893C286.377 8.49987 286.664 8.28878 286.661 7.97473C286.657 7.55201 286.223 7.20474 285.766 6.96361C285.537 6.84305 284.92 6.74202 284.859 6.74769ZM290.462 7.46923C290.416 6.6439 290.664 6.34425 290.814 5.72052C290.966 5.31411 291.07 5.01134 290.469 4.98443C289.522 4.93307 289.534 5.73077 289.354 6.41167C289.278 6.68114 289.143 7.39092 288.925 7.51281C288.72 7.62402 287.898 7.52553 287.641 7.55886C287.392 7.62925 287.164 7.84661 287.104 8.0696C287.023 8.26621 287.068 8.64495 287.305 8.80257C287.634 9.00603 288.508 8.72387 288.738 9.06176C288.617 9.74893 288.548 10.2966 288.428 10.7426C288.394 10.9562 288.155 11.8481 288.097 12.0592C288.053 12.2476 287.683 13.2464 287.734 13.4449C287.8 13.6207 288.171 13.7683 288.437 13.7601C289.042 13.7392 289.253 12.4221 289.379 12.0251C289.44 11.7901 289.656 10.8838 289.705 10.6476C289.771 10.3649 289.996 9.02513 290.243 8.85801C290.478 8.68964 291.448 8.87604 291.838 8.72397C292.102 8.61904 292.282 8.288 292.244 7.95825C292.184 7.38479 290.719 7.77382 290.462 7.46923ZM297.432 10.4461C297.358 9.6541 297.933 8.20622 296.959 8.28489C296.399 8.3346 296.346 9.18569 296.25 9.86344C296.126 10.707 295.93 11.4225 295.758 12.2491C295.596 12.9921 295.371 13.7528 296.249 13.6641C296.578 13.6383 297.081 12.6414 297.321 12.3047C297.742 11.7456 297.657 11.7488 298.337 11.0239C298.61 10.7148 298.897 10.2864 299.272 10.2775C299.287 10.8221 299.192 11.15 299.06 11.7153C298.915 12.2913 298.789 12.9175 298.763 13.5061C298.993 13.9646 299.824 13.8589 300.022 13.4694C300.084 13.3432 300.066 13.0517 300.089 12.8369C300.192 11.967 300.633 10.6378 300.648 9.80684C300.653 9.42118 300.508 8.95955 300.374 8.86095C299.941 8.50174 299.442 8.77505 299.108 8.96919C298.669 9.23683 298.295 9.58361 297.991 9.94984C297.838 10.1389 297.668 10.2658 297.432 10.4461ZM302.811 12.6405C303.108 12.5751 303.612 12.4833 303.993 12.4148C304.559 12.3173 304.851 12.1791 305.408 12.0446C305.741 11.9711 306.011 11.5891 306.021 11.2644C306.043 11.0496 305.926 10.5546 305.858 10.4026C305.471 9.14335 304.529 8.6944 303.317 8.97724C302.825 9.07028 302.239 9.47927 301.896 9.98621C301.459 10.4712 301.248 11.2092 301.367 12.2594C301.587 13.2719 301.861 13.6506 302.786 14.146C303.361 14.5322 304.546 14.5 305.202 14.1224C305.422 13.9767 305.521 13.613 305.287 13.3109C304.862 12.9887 304.46 13.5981 303.678 13.3469C303.164 13.1843 302.865 13.0443 302.811 12.6405ZM303.048 10.3849C303.864 9.85525 304.575 9.97825 304.79 10.9179C304.709 11.1145 304.342 11.281 304.061 11.3118C303.635 11.3514 302.881 11.5136 302.67 11.4552C302.598 11.2304 302.712 10.6029 303.048 10.3849ZM308.161 13.2027C308.457 13.1373 308.962 13.0455 309.343 12.977C309.908 12.8796 310.2 12.7413 310.757 12.6068C311.091 12.5333 311.36 12.1514 311.37 11.8266C311.393 11.6118 311.276 11.1169 311.207 10.9649C310.821 9.7056 309.879 9.25665 308.666 9.53949C308.174 9.63253 307.588 10.0415 307.245 10.5485C306.808 11.0334 306.598 11.7715 306.717 12.8217C306.936 13.8341 307.21 14.2128 308.135 14.7083C308.71 15.0945 309.896 15.0623 310.551 14.6847C310.771 14.5389 310.87 14.1752 310.636 13.8731C310.212 13.551 309.81 14.1603 309.028 13.9092C308.514 13.7466 308.215 13.6066 308.161 13.2027ZM308.398 10.9471C309.214 10.4175 309.925 10.5405 310.14 11.4801C310.059 11.6767 309.691 11.8432 309.41 11.8741C308.984 11.9137 308.231 12.0759 308.02 12.0175C307.947 11.7926 308.061 11.1651 308.398 10.9471ZM315.186 16.5353C315.734 16.7136 316.095 16.4981 316.219 16.0044C316.448 15.0873 316.504 13.7538 316.666 12.5522C316.817 11.6873 317.034 10.6603 317.202 9.74887C317.347 9.06421 317.747 7.77903 317.148 7.61959C316.964 7.53985 316.562 7.57006 316.463 7.71642C316.124 8.29622 316.221 10.0197 315.679 10.349C314.915 10.2687 314.237 10.2939 313.594 10.5522C313.013 10.8047 312.585 11.2062 312.254 11.7144C311.983 12.1082 311.779 12.7866 311.881 13.4248C311.985 14.039 312.556 14.6903 313.051 15.0319C313.593 15.3905 314.229 15.4212 314.87 15.6334C314.999 15.9003 314.925 16.3751 315.186 16.5353ZM315.331 13.0876C315.256 13.4538 315.188 14.2188 315.041 14.4688C314.466 14.5411 313.636 14.0557 313.338 13.5659C312.845 12.7419 313.553 11.6338 314.445 11.643C314.999 11.653 315.301 11.5399 315.456 11.7855C315.513 12.0449 315.407 12.7094 315.331 13.0876ZM323.248 10.7824C322.859 10.802 322.655 10.9132 322.346 11.0979C321.855 11.4083 321.781 11.5333 321.461 11.934C320.855 12.6546 320.579 14.0132 321.12 14.9509C321.429 15.3453 322.081 15.8 322.683 15.9236C323.402 16.0837 323.973 15.9385 324.457 15.6878C325.305 15.1977 325.951 14.3365 325.919 13.3799C326.032 11.8473 325.011 10.654 323.248 10.7824ZM322.123 13.7894C322.083 13.025 322.772 11.9753 323.429 11.9237C324.281 11.8563 324.903 12.8267 324.583 13.8066C324.419 14.3323 323.858 14.7319 323.477 14.8004C322.668 14.9205 322.157 14.3842 322.123 13.7894ZM328.142 13.6739C328.068 12.8818 328.643 11.4339 327.669 11.5126C327.109 11.5623 327.056 12.4134 326.96 13.0912C326.835 13.9347 326.639 14.6502 326.468 15.4768C326.306 16.2199 326.081 16.9805 326.959 16.8918C327.287 16.866 327.79 15.8692 328.031 15.5325C328.452 14.9734 328.367 14.9765 329.046 14.2516C329.32 13.9425 329.606 13.5141 329.981 13.5052C329.997 14.0498 329.902 14.3777 329.77 14.943C329.625 15.519 329.499 16.1453 329.473 16.7338C329.702 17.1923 330.534 17.0866 330.732 16.6972C330.793 16.5709 330.776 16.2795 330.798 16.0647C330.902 15.1947 331.343 13.8656 331.358 13.0346C331.362 12.6489 331.218 12.1873 331.084 12.0887C330.651 11.7295 330.151 12.0028 329.817 12.1969C329.379 12.4646 329.005 12.8113 328.701 13.1776C328.548 13.3667 328.378 13.4936 328.142 13.6739ZM333.521 15.8682C333.818 15.8028 334.322 15.711 334.703 15.6425C335.268 15.5451 335.56 15.4068 336.118 15.2723C336.451 15.1988 336.72 14.8168 336.73 14.4921C336.753 14.2773 336.636 13.7824 336.568 13.6304C336.181 12.3711 335.239 11.9221 334.027 12.205C333.534 12.298 332.948 12.707 332.605 13.2139C332.168 13.6989 331.958 14.437 332.077 15.4871C332.296 16.4996 332.57 16.8783 333.496 17.3738C334.07 17.76 335.256 17.7277 335.911 17.3501C336.132 17.2044 336.23 16.8407 335.997 16.5386C335.572 16.2165 335.17 16.8258 334.388 16.5747C333.874 16.4121 333.575 16.272 333.521 15.8682ZM333.758 13.6126C334.574 13.083 335.285 13.206 335.5 14.1456C335.419 14.3422 335.052 14.5087 334.771 14.5395C334.344 14.5792 333.591 14.7413 333.38 14.683C333.307 14.4581 333.422 13.8306 333.758 13.6126ZM279.464 18.3794C279.418 17.5541 279.667 17.2545 279.817 16.6307C279.968 16.2243 280.072 15.9216 279.472 15.8946C278.524 15.8433 278.537 16.641 278.357 17.3219C278.28 17.5913 278.145 18.3011 277.927 18.423C277.722 18.5342 276.9 18.4357 276.643 18.4691C276.395 18.5395 276.167 18.7568 276.107 18.9798C276.026 19.1764 276.071 19.5552 276.307 19.7128C276.636 19.9162 277.51 19.6341 277.74 19.972C277.62 20.6591 277.55 21.2069 277.431 21.6528C277.396 21.8664 277.158 22.7583 277.099 22.9694C277.055 23.1578 276.685 24.1566 276.737 24.3551C276.803 24.5309 277.173 24.6785 277.439 24.6703C278.045 24.6494 278.256 23.3323 278.382 22.9353C278.443 22.7004 278.659 21.794 278.708 21.5578C278.774 21.2751 278.999 19.9353 279.246 19.7682C279.481 19.5999 280.45 19.7862 280.84 19.6342C281.105 19.5292 281.284 19.1982 281.247 18.8685C281.186 18.295 279.722 18.684 279.464 18.3794ZM282.593 19.9752C283.031 20.0575 283.589 19.5731 284.499 19.524C284.769 19.5886 285.11 20.2518 284.769 20.6263C284.553 20.8449 283.534 20.6654 282.93 20.7829C282.585 20.8552 282.141 21.0619 281.956 21.2115C281.666 21.4464 281.312 21.8315 281.377 22.4778C281.384 22.7561 281.596 23.0318 281.791 23.2453C282.257 23.8614 282.771 24.1327 283.447 24.4812C283.641 24.586 284.121 24.721 284.328 24.7065C284.618 24.7008 284.974 24.3038 285.082 24.0739C285.341 23.4495 285.529 22.8057 285.733 22.1273C285.893 21.5287 286.162 20.6882 286.111 19.9106C286.081 19.28 285.735 18.6645 285.322 18.4642C284.588 18.2181 283.977 18.4073 283.185 18.7101C282.785 18.8371 282.308 19.0162 282.317 19.4998C282.33 19.7184 282.375 19.8679 282.593 19.9752ZM283.717 21.7947C283.945 21.8066 284.405 21.7946 284.546 21.9422C284.502 22.3599 284.379 23.1915 283.999 23.2481C283.435 23.1044 282.578 22.7609 282.639 22.0675C282.843 21.8476 283.261 21.7709 283.717 21.7947ZM288.516 19.4274C288.486 19.026 288.552 18.7434 288.634 18.3056C288.74 17.8703 288.956 17.1931 288.815 16.8163C288.638 16.3151 287.931 16.3856 287.691 16.7223C287.48 17.1224 287.371 18.0401 287.274 18.5005C287.042 19.562 286.75 20.7379 286.534 21.9822C286.438 22.5513 286.202 23.3107 286.206 23.8421C286.208 24.2887 286.333 24.8207 286.899 24.9406C287.264 25.0272 288.271 24.7469 288.572 24.6338C289.099 24.4478 289.572 24.1958 290.056 23.8365C290.686 23.3477 291.402 22.6265 291.464 21.6919C291.519 20.7083 290.728 20.0822 289.897 19.838C289.428 19.7043 288.808 19.7477 288.516 19.4274ZM287.712 22.2628C287.798 21.6686 287.953 20.9971 288.27 20.7408C289.095 20.6948 290.187 21.0992 290.164 21.7725C290.142 22.2166 289.526 22.6827 289.195 22.9617C288.848 23.2751 287.808 23.7571 287.45 23.7194L287.712 22.2628ZM296.795 22.4453C296.722 21.6533 297.296 20.2054 296.323 20.2841C295.762 20.3338 295.709 21.1849 295.614 21.8626C295.489 22.7062 295.293 23.4216 295.122 24.2483C294.959 24.9913 294.734 25.752 295.612 25.6633C295.941 25.6375 296.444 24.6406 296.684 24.3039C297.105 23.7448 297.02 23.748 297.7 23.023C297.974 22.714 298.26 22.2855 298.635 22.2767C298.65 22.8213 298.555 23.1492 298.424 23.7145C298.279 24.2905 298.152 24.9167 298.127 25.5053C298.356 25.9637 299.188 25.8581 299.385 25.4686C299.447 25.3424 299.429 25.0509 299.452 24.8361C299.555 23.9662 299.997 22.637 300.012 21.806C300.016 21.4204 299.872 20.9587 299.737 20.8601C299.304 20.5009 298.805 20.7742 298.471 20.9684C298.033 21.236 297.658 21.5828 297.354 21.949C297.202 22.1381 297.031 22.265 296.795 22.4453ZM302.973 20.7176C302.585 20.7371 302.38 20.8483 302.071 21.0331C301.58 21.3434 301.506 21.4684 301.187 21.8692C300.58 22.5897 300.305 23.9484 300.846 24.8861C301.154 25.2805 301.806 25.7351 302.409 25.8588C303.128 26.0188 303.698 25.8736 304.183 25.6229C305.031 25.1329 305.676 24.2716 305.644 23.315C305.757 21.7824 304.736 20.5892 302.973 20.7176ZM301.849 23.7245C301.808 22.9601 302.498 21.9105 303.155 21.8588C304.006 21.7915 304.628 22.7618 304.308 23.7417C304.144 24.2675 303.584 24.6671 303.202 24.7356C302.393 24.8557 301.883 24.3193 301.849 23.7245ZM307.7 25.5461C307.524 25.2623 307.56 24.349 307.576 23.7353C307.598 23.3032 307.87 22.089 307.741 21.8221C307.592 21.5168 306.965 21.4026 306.695 21.6759C306.331 22.0358 306.332 23.9786 306.347 24.4145C306.386 25.0702 306.396 25.8918 306.627 26.3383C306.934 26.9739 307.83 26.9474 308.344 26.6515C308.614 26.4869 309.219 25.6696 309.287 25.713C309.379 25.7588 309.662 26.7417 309.847 26.9301C310.238 27.3453 310.895 27.1731 311.418 26.9023C312.609 26.2551 313.789 24.2073 313.904 22.1923C313.676 21.7219 313.005 21.7961 312.771 22.0731C312.55 22.4482 312.378 23.516 312.125 24.2013C311.853 24.945 310.995 25.9891 310.725 25.9244C310.419 25.8441 310.383 24.1268 310.072 23.6357C309.885 23.3505 309.566 23.4015 309.315 23.4957C308.903 23.742 308.375 25.4361 307.7 25.5461Z" fill="black"/>
<defs>
<linearGradient id="paint0_linear_0_1" x1="320.999" y1="106.965" x2="248.812" y2="106.965" gradientUnits="userSpaceOnUse">
<stop offset="0.536458" stop-color="#030303"/>
<stop offset="1" stop-color="#030303" stop-opacity="0.6"/>
</linearGradient>
<clipPath id="clip0_0_1">
<rect width="28.3944" height="34.4457" fill="white" transform="translate(48.1777 183.18) rotate(-104.644)"/>
</clipPath>
<clipPath id="clip1_0_1">
<rect width="28.3944" height="34.4457" fill="white" transform="matrix(-0.898735 -0.438492 -0.438492 0.898735 284.621 36.4507)"/>
</clipPath>
</defs>
</svg>
