<svg width="747" height="202" viewBox="0 0 747 202" fill="none" xmlns="http://www.w3.org/2000/svg">
<g clip-path="url(#clip0_0_1)">
<path d="M687.931 92.422C688.381 94.0722 687.659 95.3427 686.842 96.4267C685.685 97.9196 684.355 99.3047 682.931 100.503C676.224 105.853 668.476 107.858 660.003 106.981C657.849 106.751 655.693 106.208 653.304 105.746C653.775 107.973 655.566 109.643 656.177 111.916C655.163 111.847 654.705 111.18 654.311 110.637C652.702 108.404 651.109 106.124 649.578 103.813C648.851 102.696 648.955 102.055 650.073 101.483C652.386 100.261 654.846 99.8645 657.391 100.326C657.485 100.356 657.58 100.542 657.754 100.806C656.584 102.658 654.157 101.353 652.656 102.787C655.649 104.586 658.927 105.025 662.202 105.151C665.633 105.277 669.014 105.075 672.296 104.063C675.515 103.082 678.37 101.465 681.161 99.5673C683.984 97.7319 686.162 95.3248 687.931 92.422Z" fill="black"/>
</g>
<path d="M667.187 56.7954C666.712 56.2246 666.655 55.4303 666.366 54.5693C666.248 54.219 666.106 53.8241 665.952 53.4137C665.878 53.1807 665.702 52.4443 665.534 52.3C664.99 51.8486 664.056 52.5669 663.998 53.1239C663.964 53.4441 664.153 53.7878 664.285 54.1395C664.406 54.4619 664.549 54.8429 664.646 55.1206C664.861 55.7625 665.246 56.3802 665.414 57.0595C665.507 57.379 665.715 57.6823 665.808 58.0018C665.957 58.5946 665.887 59.1222 665.765 59.8836C665.662 60.5908 664.997 62.365 665.835 62.5656C666.304 62.6571 666.713 62.3764 666.836 62.15C666.895 61.9873 666.99 61.4904 667.047 61.2149C667.156 60.7056 667.258 60.2798 667.326 59.7661C667.38 59.3777 667.473 58.768 667.57 58.5108C667.652 58.266 667.86 58.0344 668.07 57.775C668.235 57.539 668.399 57.317 668.578 57.0964C669.468 55.9934 669.928 55.6335 670.891 54.6367C671.097 54.4191 671.828 53.8906 671.729 53.3593C671.635 52.7863 670.917 52.7813 670.676 52.9389C670.569 53.0122 670.306 53.3786 670.177 53.534C670.029 53.7297 669.84 53.921 669.699 54.0609C669.111 54.703 668.63 55.2578 668.069 55.9027C667.798 56.212 667.584 56.64 667.187 56.7954ZM672.27 56.0908C671.817 56.1136 671.578 56.2434 671.218 56.4589C670.645 56.8209 670.559 56.9668 670.186 57.4344C669.479 58.275 669.157 59.8601 669.788 60.954C670.148 61.4142 670.909 61.9446 671.612 62.0888C672.451 62.2756 673.116 62.1062 673.682 61.8137C674.671 61.242 675.424 60.2372 675.386 59.1212C675.518 57.3331 674.327 55.941 672.27 56.0908ZM670.958 59.5989C670.911 58.7071 671.716 57.4825 672.482 57.4223C673.476 57.3437 674.201 58.4758 673.828 59.619C673.637 60.2324 672.982 60.6985 672.538 60.7785C671.594 60.9186 670.998 60.2929 670.958 59.5989ZM677.791 57.375C676.586 57.192 676.366 58.2106 676.198 59.2768C676.14 59.6931 676.025 60.6523 676.031 61.1316C676.048 62.1751 676.678 62.748 677.41 63.008C679.422 63.5573 680.32 62.6522 680.93 61.1257C681.158 60.5724 681.307 59.9546 681.379 59.3991C681.464 58.7323 681.559 57.5598 681.18 57.2807C680.945 57.1012 680.248 57.1687 680.093 57.5747C679.933 58.0224 679.912 59.1605 679.792 59.7672C679.642 60.5257 679.132 61.7671 678.566 61.7921C676.913 61.9844 677.646 59.6965 677.873 58.6083C677.974 58.1825 678.142 57.6512 677.791 57.375ZM687.876 54.6622C687.276 54.74 686.888 55.755 687.54 55.9784C688.07 56.1608 688.823 55.6909 688.747 55.0776C688.7 54.7207 688.305 54.5948 687.876 54.6622ZM687.456 57.9826C686.9 58.0508 686.822 58.662 686.707 59.0863C686.659 59.2783 686.504 60.0785 686.451 60.453C686.327 61.4958 686.117 62.2902 685.869 63.3059C685.51 64.718 685.159 66.5816 684.107 66.9496C683.786 67.0566 682.711 66.9718 682.62 67.5676C682.531 68.1494 683.295 68.5113 683.908 68.435C684.122 68.4152 684.468 68.3389 684.688 68.2495C684.938 68.149 685.194 67.9929 685.345 67.8962C685.677 67.6777 686.271 66.98 686.464 66.6202C686.641 66.2728 686.719 65.8024 686.88 65.3407C687.006 64.9457 687.107 64.5199 687.207 64.1081C687.395 63.2551 687.643 62.3661 687.787 61.5366C687.897 60.8866 688.003 60.2784 688.124 59.6716C688.189 59.3125 688.397 58.8134 688.272 58.3921C688.19 58.1019 687.829 57.9232 687.456 57.9826ZM690.708 58.7326C689.503 58.5496 689.283 59.5682 689.115 60.6345C689.057 61.0507 688.942 62.01 688.948 62.4892C688.965 63.5327 689.595 64.1056 690.328 64.3657C692.339 64.9149 693.237 64.0098 693.848 62.4833C694.075 61.93 694.224 61.3122 694.296 60.7568C694.381 60.0899 694.476 58.9174 694.097 58.6383C693.862 58.4588 693.165 58.5263 693.01 58.9323C692.85 59.3801 692.829 60.5181 692.709 61.1249C692.559 61.8833 692.049 63.1248 691.483 63.1498C689.83 63.342 690.563 61.0541 690.79 59.9659C690.891 59.5401 691.059 59.0088 690.708 58.7326ZM697.74 58.7678C696.979 58.7723 696.258 58.9358 695.692 59.4958C695.471 59.7259 695.337 60.3312 695.327 60.6961C695.307 61.2853 695.844 61.8062 696.28 62.2041C696.641 62.5235 697.537 63.1103 697.39 63.7003C696.435 64.7542 696.006 63.6111 695.22 63.8523C695.075 63.8933 694.892 64.0289 694.851 64.1513C694.651 64.8482 694.827 65.0497 695.983 65.4387C696.472 65.6027 697.25 65.5718 697.667 65.3483C698.248 65.0433 698.755 64.5054 698.864 63.7425C699 62.7151 698.184 62.0382 697.66 61.5326C697.545 61.422 696.859 60.9839 696.928 60.597C697.003 60.1543 697.461 60.0759 698.205 60.3652C698.47 60.5198 699.06 61.0744 699.362 60.8809C699.51 60.812 699.845 60.5657 699.841 60.1993C699.837 59.7061 699.331 59.301 698.797 59.0197C698.53 58.879 697.811 58.7612 697.74 58.7678ZM704.275 59.6096C704.222 58.6467 704.512 58.2971 704.687 57.5694C704.863 57.0953 704.985 56.742 704.285 56.7106C703.179 56.6507 703.194 57.5814 702.983 58.3757C702.894 58.6901 702.737 59.5182 702.482 59.6604C702.243 59.7902 701.284 59.6753 700.984 59.7141C700.694 59.7963 700.428 60.0499 700.359 60.31C700.264 60.5394 700.316 60.9812 700.593 61.1651C700.976 61.4025 701.996 61.0733 702.264 61.4675C702.124 62.2692 702.042 62.9082 701.903 63.4285C701.863 63.6777 701.585 64.7183 701.517 64.9645C701.465 65.1844 701.033 66.3496 701.093 66.5811C701.17 66.7863 701.603 66.9584 701.913 66.9489C702.62 66.9246 702.866 65.3879 703.013 64.9247C703.084 64.6506 703.336 63.5932 703.393 63.3176C703.47 62.9879 703.733 61.4248 704.021 61.2298C704.295 61.0334 705.426 61.2508 705.881 61.0734C706.19 60.951 706.399 60.5648 706.355 60.1801C706.285 59.5111 704.576 59.9649 704.275 59.6096ZM712.407 63.0826C712.322 62.1586 712.992 60.4694 711.856 60.5612C711.202 60.6192 711.14 61.6121 711.029 62.4028C710.883 63.387 710.655 64.2217 710.455 65.1861C710.265 66.053 710.003 66.9404 711.027 66.8369C711.411 66.8068 711.998 65.6438 712.278 65.251C712.769 64.5987 712.67 64.6024 713.463 63.7566C713.782 63.396 714.116 62.8962 714.554 62.8859C714.571 63.5212 714.461 63.9038 714.307 64.5633C714.138 65.2353 713.991 65.9659 713.961 66.6526C714.228 67.1874 715.199 67.0642 715.429 66.6098C715.501 66.4625 715.481 66.1225 715.507 65.8719C715.628 64.8569 716.143 63.3063 716.16 62.3368C716.165 61.8868 715.996 61.3483 715.84 61.2332C715.335 60.8142 714.752 61.133 714.362 61.3595C713.851 61.6718 713.414 62.0763 713.06 62.5036C712.882 62.7242 712.683 62.8723 712.407 63.0826ZM718.683 65.6427C719.029 65.5664 719.618 65.4593 720.062 65.3794C720.722 65.2657 721.063 65.1044 721.713 64.9475C722.102 64.8617 722.416 64.4161 722.428 64.0373C722.454 63.7866 722.318 63.2092 722.238 63.0319C721.787 61.5627 720.688 61.0389 719.273 61.3689C718.699 61.4775 718.015 61.9546 717.615 62.546C717.105 63.1118 716.86 63.9729 716.999 65.1981C717.255 66.3793 717.574 66.8212 718.654 67.3992C719.324 67.8497 720.708 67.8121 721.472 67.3716C721.729 67.2016 721.844 66.7773 721.571 66.4248C721.076 66.049 720.607 66.7599 719.695 66.4669C719.095 66.2772 718.746 66.1138 718.683 65.6427ZM718.96 63.0112C719.912 62.3933 720.741 62.5368 720.992 63.633C720.898 63.8624 720.469 64.0566 720.141 64.0926C719.644 64.1388 718.765 64.328 718.519 64.2599C718.434 63.9976 718.567 63.2655 718.96 63.0112ZM724.924 66.2986C725.27 66.2224 725.859 66.1153 726.303 66.0353C726.963 65.9216 727.304 65.7604 727.954 65.6035C728.343 65.5177 728.657 65.0721 728.669 64.6932C728.695 64.4426 728.559 63.8652 728.479 63.6878C728.028 62.2187 726.929 61.6949 725.514 62.0249C724.94 62.1334 724.256 62.6106 723.856 63.202C723.346 63.7678 723.101 64.6289 723.24 65.8541C723.496 67.0353 723.815 67.4771 724.895 68.0551C725.565 68.5057 726.949 68.4681 727.713 68.0276C727.97 67.8575 728.085 67.4332 727.812 67.0808C727.317 66.7049 726.848 67.4158 725.936 67.1229C725.336 66.9332 724.988 66.7698 724.924 66.2986ZM725.201 63.6671C726.153 63.0492 726.982 63.1927 727.233 64.2889C727.139 64.5183 726.71 64.7126 726.382 64.7485C725.885 64.7948 725.006 64.984 724.76 64.9159C724.675 64.6535 724.808 63.9215 725.201 63.6671ZM733.12 70.1866C733.76 70.3946 734.181 70.1432 734.326 69.5672C734.593 68.4973 734.658 66.9416 734.847 65.5397C735.024 64.5306 735.277 63.3325 735.473 62.2691C735.641 61.4704 736.108 59.971 735.41 59.785C735.195 59.692 734.726 59.7272 734.61 59.898C734.215 60.5744 734.327 62.5852 733.696 62.9692C732.805 62.8756 732.013 62.905 731.264 63.2063C730.585 63.501 730.086 63.9693 729.699 64.5622C729.384 65.0217 729.146 65.8132 729.264 66.5577C729.386 67.2744 730.052 68.0342 730.63 68.4327C731.262 68.851 732.004 68.8868 732.752 69.1344C732.903 69.4458 732.816 69.9998 733.12 70.1866ZM733.29 66.1643C733.203 66.5915 733.123 67.4841 732.951 67.7758C732.281 67.8601 731.313 67.2938 730.965 66.7223C730.39 65.761 731.216 64.4682 732.256 64.479C732.902 64.4907 733.254 64.3587 733.435 64.6452C733.502 64.9478 733.378 65.7231 733.29 66.1643ZM667.285 69.644C666.832 69.6668 666.593 69.7965 666.233 70.012C665.66 70.3741 665.574 70.52 665.201 70.9875C664.493 71.8282 664.172 73.4132 664.803 74.5072C665.163 74.9673 665.924 75.4978 666.627 75.642C667.466 75.8287 668.131 75.6594 668.697 75.3669C669.686 74.7952 670.439 73.7904 670.401 72.6743C670.533 70.8863 669.342 69.4942 667.285 69.644ZM665.973 73.1521C665.926 72.2603 666.731 71.0357 667.497 70.9754C668.491 70.8969 669.216 72.0289 668.843 73.1722C668.652 73.7855 667.997 74.2517 667.553 74.3316C666.609 74.4717 666.013 73.846 665.973 73.1521ZM672.995 73.0173C672.909 72.0933 673.579 70.4041 672.443 70.4959C671.79 70.5539 671.728 71.5468 671.616 72.3375C671.471 73.3217 671.242 74.1564 671.042 75.1207C670.853 75.9877 670.591 76.8751 671.615 76.7716C671.998 76.7415 672.585 75.5785 672.866 75.1857C673.356 74.5334 673.258 74.5371 674.05 73.6913C674.37 73.3307 674.704 72.8309 675.141 72.8206C675.159 73.4559 675.048 73.8385 674.895 74.498C674.725 75.17 674.578 75.9006 674.548 76.5872C674.816 77.1221 675.786 76.9989 676.017 76.5445C676.089 76.3972 676.068 76.0572 676.094 75.8066C676.215 74.7916 676.73 73.241 676.747 72.2715C676.753 71.8215 676.584 71.283 676.427 71.1679C675.922 70.7489 675.34 71.0677 674.95 71.2942C674.438 71.6065 674.002 72.011 673.647 72.4383C673.469 72.6589 673.27 72.807 672.995 73.0173ZM679.271 75.5774C679.617 75.5011 680.205 75.394 680.65 75.3141C681.309 75.2004 681.65 75.0391 682.3 74.8822C682.689 74.7964 683.003 74.3508 683.015 73.9719C683.041 73.7213 682.905 73.1439 682.825 72.9666C682.374 71.4974 681.275 70.9736 679.861 71.3036C679.286 71.4121 678.603 71.8893 678.203 72.4807C677.693 73.0465 677.447 73.9076 677.586 75.1328C677.842 76.314 678.162 76.7559 679.241 77.3339C679.912 77.7844 681.295 77.7468 682.059 77.3063C682.317 77.1363 682.432 76.712 682.159 76.3595C681.663 75.9837 681.195 76.6946 680.282 76.4016C679.683 76.2119 679.334 76.0485 679.271 75.5774ZM679.547 72.9458C680.499 72.328 681.329 72.4714 681.58 73.5677C681.485 73.797 681.056 73.9913 680.729 74.0273C680.231 74.0735 679.353 74.2627 679.106 74.1946C679.021 73.9323 679.155 73.2002 679.547 72.9458ZM691.445 72.3381C691.391 71.3753 691.681 71.0257 691.856 70.298C692.033 69.8238 692.155 69.4706 691.454 69.4392C690.348 69.3793 690.363 70.3099 690.153 71.1043C690.064 71.4187 689.906 72.2468 689.652 72.389C689.413 72.5187 688.454 72.4038 688.154 72.4427C687.864 72.5248 687.598 72.7784 687.528 73.0386C687.434 73.268 687.486 73.7098 687.762 73.8937C688.145 74.1311 689.165 73.8019 689.434 74.1961C689.293 74.9978 689.212 75.6368 689.073 76.1571C689.033 76.4063 688.754 77.4469 688.686 77.6931C688.635 77.913 688.203 79.0782 688.263 79.3097C688.34 79.5149 688.772 79.687 689.083 79.6774C689.789 79.6532 690.035 78.1164 690.182 77.6533C690.254 77.3792 690.505 76.3218 690.563 76.0462C690.639 75.7165 690.902 74.1534 691.19 73.9584C691.464 73.762 692.596 73.9794 693.051 73.802C693.359 73.6796 693.569 73.2934 693.525 72.9087C693.454 72.2396 691.745 72.6935 691.445 72.3381ZM695.095 74.1999C695.606 74.2958 696.257 73.7308 697.319 73.6734C697.634 73.7489 698.032 74.5226 697.634 74.9594C697.382 75.2145 696.193 75.0051 695.489 75.1422C695.086 75.2266 694.568 75.4677 694.353 75.6422C694.014 75.9163 693.601 76.3656 693.676 77.1196C693.685 77.4442 693.932 77.7659 694.16 78.015C694.703 78.7338 695.304 79.0503 696.091 79.4568C696.318 79.5792 696.878 79.7366 697.12 79.7197C697.458 79.7131 697.873 79.2499 698 78.9817C698.301 78.2532 698.521 77.5021 698.759 76.7106C698.945 76.0123 699.259 75.0317 699.2 74.1245C699.164 73.3888 698.761 72.6707 698.279 72.4371C697.422 72.1499 696.709 72.3706 695.785 72.724C695.319 72.8721 694.763 73.081 694.774 73.6453C694.789 73.9003 694.841 74.0747 695.095 74.1999ZM696.407 76.3226C696.673 76.3365 697.209 76.3225 697.374 76.4947C697.323 76.982 697.179 77.9522 696.735 78.0183C696.077 77.8505 695.078 77.4499 695.149 76.6409C695.387 76.3843 695.875 76.2949 696.407 76.3226ZM702.006 73.5608C701.971 73.0925 702.048 72.7628 702.144 72.252C702.267 71.7441 702.519 70.9541 702.354 70.5145C702.148 69.9298 701.323 70.012 701.043 70.4048C700.796 70.8716 700.67 71.9422 700.557 72.4794C700.286 73.7179 699.945 75.0897 699.694 76.5414C699.582 77.2053 699.306 78.0913 699.311 78.7113C699.312 79.2323 699.458 79.8529 700.119 79.9928C700.545 80.0939 701.72 79.7668 702.071 79.6349C702.685 79.4179 703.237 79.1239 703.802 78.7047C704.538 78.1345 705.372 77.2931 705.445 76.2027C705.509 75.0551 704.586 74.3247 703.617 74.0398C703.07 73.8838 702.347 73.9344 702.006 73.5608ZM701.067 76.8687C701.168 76.1755 701.349 75.3921 701.718 75.0931C702.681 75.0394 703.955 75.5112 703.928 76.2967C703.902 76.8148 703.183 77.3587 702.797 77.6841C702.393 78.0498 701.179 78.612 700.762 78.5681L701.067 76.8687ZM711.665 77.0817C711.579 76.1576 712.249 74.4684 711.113 74.5602C710.46 74.6182 710.398 75.6112 710.286 76.4019C710.141 77.386 709.912 78.2207 709.712 79.1851C709.523 80.052 709.26 80.9395 710.285 80.836C710.668 80.8059 711.255 79.6429 711.535 79.25C712.026 78.5978 711.927 78.6014 712.72 77.7557C713.04 77.3951 713.374 76.8953 713.811 76.8849C713.829 77.5203 713.718 77.9028 713.564 78.5624C713.395 79.2344 713.248 79.965 713.218 80.6516C713.486 81.1865 714.456 81.0632 714.687 80.6089C714.758 80.4616 714.738 80.1216 714.764 79.8709C714.885 78.856 715.4 77.3053 715.417 76.3358C715.422 75.8859 715.254 75.3473 715.097 75.2323C714.592 74.8132 714.009 75.1321 713.62 75.3586C713.108 75.6708 712.671 76.0754 712.317 76.5027C712.139 76.7233 711.94 76.8713 711.665 77.0817ZM718.872 75.066C718.419 75.0888 718.18 75.2185 717.82 75.434C717.247 75.7961 717.161 75.942 716.788 76.4095C716.08 77.2502 715.759 78.8352 716.39 79.9292C716.75 80.3893 717.511 80.9198 718.213 81.064C719.053 81.2508 719.718 81.0814 720.284 80.7889C721.273 80.2172 722.026 79.2124 721.988 78.0963C722.12 76.3083 720.929 74.9162 718.872 75.066ZM717.56 78.5741C717.513 77.6823 718.318 76.4577 719.084 76.3975C720.078 76.3189 720.803 77.4509 720.43 78.5942C720.239 79.2075 719.584 79.6737 719.14 79.7536C718.196 79.8938 717.6 79.268 717.56 78.5741ZM724.387 80.6993C724.182 80.3681 724.224 79.3026 724.243 78.5867C724.267 78.0825 724.585 76.666 724.435 76.3545C724.261 75.9984 723.529 75.8652 723.214 76.184C722.79 76.604 722.791 78.8705 722.808 79.379C722.854 80.1441 722.866 81.1026 723.135 81.6235C723.494 82.3651 724.539 82.3341 725.138 81.9889C725.454 81.7968 726.159 80.8434 726.238 80.8939C726.345 80.9474 726.675 82.0942 726.892 82.314C727.347 82.7983 728.115 82.5974 728.725 82.2814C730.113 81.5264 731.491 79.1373 731.625 76.7865C731.359 76.2377 730.576 76.3243 730.303 76.6475C730.045 77.085 729.844 78.3308 729.549 79.1303C729.232 79.998 728.232 81.216 727.916 81.1406C727.56 81.0469 727.517 79.0434 727.155 78.4704C726.936 78.1378 726.564 78.1972 726.271 78.3072C725.79 78.5945 725.174 80.5709 724.387 80.6993Z" fill="black"/>
<rect x="121" width="502" height="202" rx="16" fill="#F5F5F5"/>
<rect x="201" y="60" width="341.226" height="82" fill="#030303"/>
<path fill-rule="evenodd" clip-rule="evenodd" d="M256.548 116.871C265.314 116.871 272.419 109.765 272.419 101C272.419 92.2346 265.314 85.1289 256.548 85.1289C247.783 85.1289 240.677 92.2346 240.677 101C240.677 109.765 247.783 116.871 256.548 116.871ZM261.499 92.5223C261.74 91.6662 260.91 91.16 260.151 91.7005L249.56 99.2458C248.737 99.832 248.866 101 249.754 101H252.543V100.978H257.979L253.55 102.541L251.597 109.478C251.356 110.334 252.187 110.84 252.946 110.299L263.537 102.754C264.36 102.168 264.23 101 263.343 101H259.113L261.499 92.5223Z" fill="#A8FF35"/>
<path d="M292.988 92.0749V109H290.744V92.0749H292.988ZM300.079 99.6887V101.525H292.499V99.6887H300.079ZM301.229 92.0749V93.9115H292.499V92.0749H301.229ZM305.914 96.4223V109H303.752V96.4223H305.914ZM303.589 93.0862C303.589 92.7374 303.694 92.443 303.903 92.2027C304.12 91.9625 304.438 91.8424 304.856 91.8424C305.267 91.8424 305.581 91.9625 305.798 92.2027C306.022 92.443 306.135 92.7374 306.135 93.0862C306.135 93.4194 306.022 93.7061 305.798 93.9464C305.581 94.1788 305.267 94.2951 304.856 94.2951C304.438 94.2951 304.12 94.1788 303.903 93.9464C303.694 93.7061 303.589 93.4194 303.589 93.0862ZM311.517 99.1075V109H309.366V96.4223H311.401L311.517 99.1075ZM311.005 102.234L310.11 102.2C310.118 101.339 310.246 100.545 310.494 99.8166C310.742 99.0804 311.091 98.4411 311.54 97.8986C311.989 97.3561 312.524 96.9377 313.144 96.6432C313.772 96.341 314.465 96.1898 315.225 96.1898C315.845 96.1898 316.403 96.2751 316.899 96.4456C317.395 96.6083 317.817 96.8718 318.166 97.236C318.522 97.6002 318.794 98.073 318.98 98.6542C319.166 99.2276 319.259 99.929 319.259 100.758V109H317.096V100.735C317.096 100.076 317 99.5492 316.806 99.154C316.612 98.751 316.329 98.4604 315.957 98.2822C315.585 98.0962 315.128 98.0032 314.586 98.0032C314.051 98.0032 313.563 98.1156 313.121 98.3403C312.687 98.5651 312.311 98.875 311.993 99.2703C311.683 99.6655 311.439 100.119 311.261 100.63C311.091 101.134 311.005 101.669 311.005 102.234ZM330.453 106.559V91.1449H332.615V109H330.639L330.453 106.559ZM321.99 102.851V102.606C321.99 101.645 322.106 100.774 322.339 99.991C322.579 99.2005 322.916 98.5224 323.35 97.9567C323.792 97.391 324.315 96.957 324.92 96.6548C325.532 96.3448 326.214 96.1898 326.965 96.1898C327.756 96.1898 328.446 96.3293 329.034 96.6083C329.631 96.8795 330.135 97.2786 330.546 97.8056C330.964 98.3248 331.293 98.9525 331.534 99.6887C331.774 100.425 331.941 101.258 332.034 102.188V103.257C331.948 104.18 331.782 105.009 331.534 105.745C331.293 106.481 330.964 107.109 330.546 107.628C330.135 108.147 329.631 108.546 329.034 108.825C328.438 109.097 327.74 109.232 326.942 109.232C326.206 109.232 325.532 109.073 324.92 108.756C324.315 108.438 323.792 107.992 323.35 107.419C322.916 106.845 322.579 106.171 322.339 105.396C322.106 104.614 321.99 103.765 321.99 102.851ZM324.152 102.606V102.851C324.152 103.478 324.214 104.067 324.338 104.617C324.47 105.168 324.672 105.652 324.943 106.07C325.214 106.489 325.559 106.818 325.977 107.059C326.396 107.291 326.896 107.407 327.477 107.407C328.19 107.407 328.775 107.256 329.232 106.954C329.697 106.652 330.069 106.253 330.348 105.757C330.627 105.261 330.844 104.722 330.999 104.141V101.339C330.906 100.913 330.77 100.502 330.592 100.107C330.422 99.7042 330.197 99.3478 329.918 99.0378C329.647 98.7201 329.31 98.4682 328.907 98.2822C328.511 98.0962 328.043 98.0032 327.5 98.0032C326.911 98.0032 326.404 98.1272 325.977 98.3752C325.559 98.6154 325.214 98.9487 324.943 99.3749C324.672 99.7934 324.47 100.282 324.338 100.84C324.214 101.39 324.152 101.979 324.152 102.606ZM341.228 96.4223V98.073H334.428V96.4223H341.228ZM336.73 93.3651H338.88V105.884C338.88 106.311 338.946 106.632 339.078 106.849C339.21 107.066 339.38 107.21 339.589 107.279C339.799 107.349 340.023 107.384 340.264 107.384C340.442 107.384 340.628 107.368 340.821 107.337C341.023 107.299 341.174 107.268 341.275 107.244L341.286 109C341.116 109.054 340.891 109.104 340.612 109.151C340.341 109.205 340.012 109.232 339.624 109.232C339.097 109.232 338.613 109.128 338.171 108.918C337.729 108.709 337.377 108.36 337.113 107.872C336.858 107.376 336.73 106.71 336.73 105.873V93.3651ZM345.901 98.3984V109H343.751V96.4223H345.843L345.901 98.3984ZM349.83 96.3526L349.819 98.3519C349.64 98.3132 349.47 98.29 349.307 98.2822C349.152 98.2667 348.974 98.259 348.772 98.259C348.276 98.259 347.839 98.3365 347.459 98.4914C347.079 98.6464 346.758 98.8634 346.494 99.1424C346.231 99.4214 346.021 99.7546 345.866 100.142C345.719 100.522 345.622 100.94 345.576 101.398L344.971 101.746C344.971 100.987 345.045 100.274 345.192 99.6074C345.347 98.9409 345.584 98.3519 345.901 97.8405C346.219 97.3213 346.622 96.9183 347.11 96.6316C347.606 96.3371 348.195 96.1898 348.877 96.1898C349.032 96.1898 349.21 96.2092 349.412 96.248C349.613 96.279 349.753 96.3138 349.83 96.3526ZM356.805 109.232C355.929 109.232 355.135 109.085 354.422 108.791C353.717 108.488 353.108 108.066 352.597 107.523C352.093 106.981 351.706 106.338 351.434 105.594C351.163 104.85 351.028 104.036 351.028 103.153V102.665C351.028 101.642 351.179 100.731 351.481 99.9328C351.783 99.1269 352.194 98.4449 352.713 97.887C353.232 97.329 353.821 96.9067 354.48 96.6199C355.139 96.3332 355.821 96.1898 356.526 96.1898C357.425 96.1898 358.2 96.3448 358.851 96.6548C359.509 96.9648 360.048 97.3988 360.466 97.9567C360.885 98.5069 361.195 99.1579 361.396 99.9096C361.598 100.654 361.699 101.467 361.699 102.351V103.316H352.306V101.56H359.548V101.398C359.517 100.84 359.401 100.297 359.199 99.7701C359.006 99.2431 358.696 98.8092 358.269 98.4682C357.843 98.1272 357.262 97.9567 356.526 97.9567C356.038 97.9567 355.588 98.0613 355.177 98.2706C354.767 98.4721 354.414 98.7743 354.12 99.1773C353.825 99.5802 353.597 100.072 353.434 100.654C353.271 101.235 353.19 101.905 353.19 102.665V103.153C353.19 103.749 353.271 104.311 353.434 104.838C353.604 105.357 353.848 105.815 354.166 106.21C354.492 106.605 354.883 106.915 355.34 107.14C355.805 107.365 356.332 107.477 356.921 107.477C357.681 107.477 358.324 107.322 358.851 107.012C359.378 106.702 359.839 106.287 360.234 105.768L361.536 106.803C361.265 107.213 360.92 107.605 360.501 107.977C360.083 108.349 359.568 108.651 358.955 108.884C358.351 109.116 357.634 109.232 356.805 109.232ZM366.36 99.1075V109H364.209V96.4223H366.244L366.36 99.1075ZM365.848 102.234L364.953 102.2C364.961 101.339 365.089 100.545 365.337 99.8166C365.585 99.0804 365.934 98.4411 366.383 97.8986C366.833 97.3561 367.367 96.9377 367.987 96.6432C368.615 96.341 369.309 96.1898 370.068 96.1898C370.688 96.1898 371.246 96.2751 371.742 96.4456C372.238 96.6083 372.66 96.8718 373.009 97.236C373.365 97.6002 373.637 98.073 373.823 98.6542C374.009 99.2276 374.102 99.929 374.102 100.758V109H371.94V100.735C371.94 100.076 371.843 99.5492 371.649 99.154C371.455 98.751 371.172 98.4604 370.8 98.2822C370.428 98.0962 369.971 98.0032 369.429 98.0032C368.894 98.0032 368.406 98.1156 367.964 98.3403C367.53 98.5651 367.154 98.875 366.837 99.2703C366.527 99.6655 366.282 100.119 366.104 100.63C365.934 101.134 365.848 101.669 365.848 102.234ZM385.296 106.559V91.1449H387.458V109H385.482L385.296 106.559ZM376.833 102.851V102.606C376.833 101.645 376.95 100.774 377.182 99.991C377.422 99.2005 377.759 98.5224 378.193 97.9567C378.635 97.391 379.158 96.957 379.763 96.6548C380.375 96.3448 381.057 96.1898 381.809 96.1898C382.599 96.1898 383.289 96.3293 383.878 96.6083C384.474 96.8795 384.978 97.2786 385.389 97.8056C385.807 98.3248 386.137 98.9525 386.377 99.6887C386.617 100.425 386.784 101.258 386.877 102.188V103.257C386.791 104.18 386.625 105.009 386.377 105.745C386.137 106.481 385.807 107.109 385.389 107.628C384.978 108.147 384.474 108.546 383.878 108.825C383.281 109.097 382.584 109.232 381.785 109.232C381.049 109.232 380.375 109.073 379.763 108.756C379.158 108.438 378.635 107.992 378.193 107.419C377.759 106.845 377.422 106.171 377.182 105.396C376.95 104.614 376.833 103.765 376.833 102.851ZM378.995 102.606V102.851C378.995 103.478 379.057 104.067 379.181 104.617C379.313 105.168 379.515 105.652 379.786 106.07C380.057 106.489 380.402 106.818 380.82 107.059C381.239 107.291 381.739 107.407 382.32 107.407C383.033 107.407 383.618 107.256 384.075 106.954C384.54 106.652 384.912 106.253 385.191 105.757C385.47 105.261 385.687 104.722 385.842 104.141V101.339C385.749 100.913 385.614 100.502 385.435 100.107C385.265 99.7042 385.04 99.3478 384.761 99.0378C384.49 98.7201 384.153 98.4682 383.75 98.2822C383.355 98.0962 382.886 98.0032 382.343 98.0032C381.754 98.0032 381.247 98.1272 380.82 98.3752C380.402 98.6154 380.057 98.9487 379.786 99.3749C379.515 99.7934 379.313 100.282 379.181 100.84C379.057 101.39 378.995 101.979 378.995 102.606ZM401.186 100.921V102.688H395.514V100.921H401.186ZM420.273 107.175V109H411.311V107.175H420.273ZM411.764 92.0749V109H409.521V92.0749H411.764ZM419.088 99.3516V101.177H411.311V99.3516H419.088ZM420.157 92.0749V93.9115H411.311V92.0749H420.157ZM425.062 91.1449V109H422.9V91.1449H425.062ZM427.945 102.851V102.583C427.945 101.676 428.077 100.836 428.34 100.061C428.604 99.278 428.984 98.5999 429.48 98.0265C429.976 97.4453 430.576 96.9958 431.281 96.6781C431.987 96.3526 432.777 96.1898 433.653 96.1898C434.536 96.1898 435.33 96.3526 436.036 96.6781C436.749 96.9958 437.353 97.4453 437.849 98.0265C438.353 98.5999 438.736 99.278 439 100.061C439.263 100.836 439.395 101.676 439.395 102.583V102.851C439.395 103.757 439.263 104.598 439 105.373C438.736 106.148 438.353 106.826 437.849 107.407C437.353 107.981 436.752 108.43 436.047 108.756C435.35 109.073 434.559 109.232 433.676 109.232C432.792 109.232 431.998 109.073 431.293 108.756C430.588 108.43 429.983 107.981 429.48 107.407C428.984 106.826 428.604 106.148 428.34 105.373C428.077 104.598 427.945 103.757 427.945 102.851ZM430.096 102.583V102.851C430.096 103.478 430.169 104.071 430.317 104.629C430.464 105.179 430.685 105.667 430.979 106.094C431.281 106.52 431.657 106.857 432.107 107.105C432.556 107.345 433.079 107.465 433.676 107.465C434.265 107.465 434.78 107.345 435.222 107.105C435.671 106.857 436.043 106.52 436.338 106.094C436.632 105.667 436.853 105.179 437 104.629C437.155 104.071 437.233 103.478 437.233 102.851V102.583C437.233 101.963 437.155 101.378 437 100.828C436.853 100.27 436.628 99.7779 436.326 99.3516C436.032 98.9177 435.66 98.5767 435.21 98.3287C434.769 98.0807 434.249 97.9567 433.653 97.9567C433.064 97.9567 432.545 98.0807 432.095 98.3287C431.653 98.5767 431.281 98.9177 430.979 99.3516C430.685 99.7779 430.464 100.27 430.317 100.828C430.169 101.378 430.096 101.963 430.096 102.583ZM444.242 99.1075V109H442.092V96.4223H444.126L444.242 99.1075ZM443.731 102.234L442.836 102.2C442.844 101.339 442.971 100.545 443.219 99.8166C443.467 99.0804 443.816 98.4411 444.266 97.8986C444.715 97.3561 445.25 96.9377 445.87 96.6432C446.497 96.341 447.191 96.1898 447.951 96.1898C448.57 96.1898 449.128 96.2751 449.624 96.4456C450.12 96.6083 450.543 96.8718 450.891 97.236C451.248 97.6002 451.519 98.073 451.705 98.6542C451.891 99.2276 451.984 99.929 451.984 100.758V109H449.822V100.735C449.822 100.076 449.725 99.5492 449.531 99.154C449.338 98.751 449.055 98.4604 448.683 98.2822C448.311 98.0962 447.854 98.0032 447.311 98.0032C446.776 98.0032 446.288 98.1156 445.847 98.3403C445.413 98.5651 445.037 98.875 444.719 99.2703C444.409 99.6655 444.165 100.119 443.987 100.63C443.816 101.134 443.731 101.669 443.731 102.234ZM462.19 92.0749H464.364L469.909 105.873L475.442 92.0749H477.627L470.746 109H469.048L462.19 92.0749ZM461.481 92.0749H463.399L463.713 102.397V109H461.481V92.0749ZM476.407 92.0749H478.325V109H476.093V102.397L476.407 92.0749ZM489.635 106.094V96.4223H491.797V109H489.74L489.635 106.094ZM490.042 103.443L490.937 103.42C490.937 104.257 490.848 105.032 490.67 105.745C490.499 106.45 490.22 107.062 489.833 107.582C489.445 108.101 488.938 108.508 488.31 108.802C487.682 109.089 486.919 109.232 486.02 109.232C485.408 109.232 484.846 109.143 484.334 108.965C483.831 108.787 483.397 108.512 483.032 108.14C482.668 107.768 482.385 107.283 482.184 106.687C481.99 106.09 481.893 105.373 481.893 104.536V96.4223H484.044V104.559C484.044 105.125 484.106 105.594 484.23 105.966C484.362 106.33 484.536 106.621 484.753 106.838C484.978 107.047 485.226 107.194 485.497 107.279C485.776 107.365 486.063 107.407 486.357 107.407C487.271 107.407 487.996 107.233 488.531 106.884C489.065 106.528 489.449 106.051 489.682 105.454C489.922 104.85 490.042 104.18 490.042 103.443ZM502.398 105.664C502.398 105.354 502.329 105.067 502.189 104.803C502.057 104.532 501.782 104.288 501.364 104.071C500.953 103.846 500.333 103.653 499.504 103.49C498.807 103.343 498.175 103.168 497.609 102.967C497.051 102.765 496.575 102.521 496.179 102.234C495.792 101.948 495.494 101.611 495.284 101.223C495.075 100.836 494.971 100.382 494.971 99.8631C494.971 99.3671 495.079 98.8983 495.296 98.4566C495.521 98.0148 495.835 97.6235 496.238 97.2825C496.648 96.9415 497.14 96.6742 497.714 96.4804C498.287 96.2867 498.927 96.1898 499.632 96.1898C500.639 96.1898 501.5 96.3681 502.212 96.7246C502.925 97.081 503.472 97.5576 503.851 98.1543C504.231 98.7433 504.421 99.3981 504.421 100.119H502.271C502.271 99.7701 502.166 99.433 501.957 99.1075C501.755 98.7743 501.457 98.4992 501.062 98.2822C500.674 98.0652 500.198 97.9567 499.632 97.9567C499.035 97.9567 498.551 98.0497 498.179 98.2357C497.815 98.4139 497.547 98.6426 497.377 98.9215C497.214 99.2005 497.133 99.495 497.133 99.805C497.133 100.037 497.171 100.247 497.249 100.433C497.334 100.611 497.481 100.778 497.691 100.933C497.9 101.08 498.194 101.219 498.574 101.351C498.954 101.483 499.438 101.614 500.027 101.746C501.058 101.979 501.906 102.258 502.573 102.583C503.239 102.909 503.735 103.308 504.061 103.78C504.386 104.253 504.549 104.827 504.549 105.501C504.549 106.051 504.433 106.555 504.2 107.012C503.975 107.469 503.646 107.864 503.212 108.198C502.786 108.523 502.274 108.779 501.678 108.965C501.089 109.143 500.426 109.232 499.69 109.232C498.582 109.232 497.644 109.035 496.877 108.639C496.11 108.244 495.529 107.733 495.133 107.105C494.738 106.477 494.54 105.815 494.54 105.117H496.703C496.734 105.706 496.904 106.175 497.214 106.524C497.524 106.865 497.904 107.109 498.353 107.256C498.803 107.396 499.248 107.465 499.69 107.465C500.279 107.465 500.771 107.388 501.166 107.233C501.569 107.078 501.875 106.865 502.085 106.594C502.294 106.322 502.398 106.012 502.398 105.664ZM509.536 91.1449V109H507.374V91.1449H509.536ZM517.219 96.4223L511.733 102.293L508.664 105.478L508.49 103.188L510.687 100.561L514.592 96.4223H517.219ZM515.255 109L510.768 103.002L511.884 101.084L517.789 109H515.255Z" fill="white"/>
<rect x="457.581" y="60" width="84.6452" height="82" fill="url(#paint0_linear_0_1)"/>
<rect width="2.64056" height="19.8042" rx="0.66129" transform="matrix(0.707101 -0.707112 0.707101 0.707112 505.193 94.9316)" fill="white"/>
<rect width="2.64056" height="19.8042" rx="0.66129" transform="matrix(-0.707101 -0.707112 -0.707101 0.707112 521.064 94.9316)" fill="white"/>
<g clip-path="url(#clip1_0_1)">
<path d="M53.5859 93.2035C53.1358 91.5533 53.8581 90.2828 54.6755 89.1988C55.8325 87.7059 57.162 86.3208 58.5865 85.1221C65.2933 79.772 73.0411 77.7678 81.5142 78.6442C83.6677 78.8747 85.8237 79.4172 88.2129 79.8797C87.7425 77.6523 85.9513 75.9829 85.3402 73.7099C86.3542 73.7789 86.8118 74.4459 87.206 74.9886C88.8147 77.2214 90.4082 79.5011 91.9395 81.8127C92.6659 82.9298 92.562 83.5705 91.4442 84.1423C89.1312 85.3646 86.6711 85.761 84.126 85.3C84.0322 85.2696 83.9371 85.0832 83.7634 84.8194C84.9331 82.9676 87.3604 84.2724 88.861 82.8389C85.8683 81.0398 82.5905 80.6008 79.3154 80.474C75.8843 80.3486 72.5028 80.5504 69.2214 81.5628C66.0021 82.5435 63.1467 84.1607 60.3559 86.0582C57.5335 87.8936 55.355 90.3007 53.5859 93.2035Z" fill="black"/>
</g>
<path d="M20.4151 106.896C19.6544 106.901 18.9334 107.064 18.3678 107.624C18.1465 107.854 18.0125 108.459 18.0023 108.824C17.9826 109.414 18.5191 109.934 18.9559 110.332C19.3165 110.652 20.212 111.239 20.0656 111.828C19.1102 112.882 18.6813 111.739 17.8958 111.981C17.7507 112.022 17.5675 112.157 17.5265 112.28C17.3266 112.976 17.5025 113.178 18.6581 113.567C19.1477 113.731 19.9252 113.7 20.3428 113.476C20.9239 113.172 21.4309 112.634 21.5392 111.871C21.6754 110.843 20.8597 110.166 20.3356 109.661C20.2206 109.55 19.5346 109.112 19.6034 108.725C19.6781 108.283 20.1368 108.204 20.8806 108.493C21.1459 108.648 21.7352 109.203 22.0371 109.009C22.1851 108.94 22.5207 108.694 22.5169 108.328C22.5125 107.834 22.006 107.429 21.4725 107.148C21.2058 107.007 20.4861 106.889 20.4151 106.896ZM25.7836 107.46C25.3307 107.483 25.0919 107.613 24.7314 107.828C24.1584 108.19 24.0727 108.336 23.6997 108.804C22.992 109.644 22.6705 111.229 23.3016 112.323C23.6615 112.784 24.4222 113.314 25.125 113.458C25.9641 113.645 26.6294 113.476 27.1951 113.183C28.1843 112.611 28.9375 111.607 28.8999 110.491C29.0315 108.703 27.8405 107.31 25.7836 107.46ZM24.4717 110.968C24.4247 110.077 25.2291 108.852 25.9956 108.792C26.9892 108.713 27.7149 109.845 27.3413 110.988C27.1502 111.602 26.4959 112.068 26.0511 112.148C25.1072 112.288 24.5114 111.662 24.4717 110.968ZM31.8713 104.693C30.8938 104.886 30.8288 106.442 30.6099 107.587C30.295 109.244 29.9977 110.465 29.6228 112.157C29.4829 112.818 28.8611 114.583 29.3067 114.897C29.6841 115.19 30.3252 114.849 30.5392 114.421C30.6813 114.141 30.9361 113.055 31.0203 112.656C31.4164 110.628 31.828 108.856 32.205 106.742C32.361 105.927 32.8767 104.503 31.8713 104.693ZM34.2009 109.049C32.9954 108.866 32.7758 109.884 32.6074 110.951C32.5496 111.367 32.4347 112.326 32.4406 112.805C32.4576 113.849 33.0872 114.422 33.82 114.682C35.8316 115.231 36.7292 114.326 37.3401 112.799C37.5671 112.246 37.7165 111.628 37.789 111.073C37.8732 110.406 37.9682 109.234 37.5893 108.954C37.3548 108.775 36.6579 108.842 36.5027 109.248C36.343 109.696 36.3219 110.834 36.2018 111.441C36.0517 112.2 35.5412 113.441 34.9754 113.466C33.3223 113.658 34.0555 111.37 34.2825 110.282C34.3835 109.856 34.552 109.325 34.2009 109.049ZM42.302 109.351C42.2483 108.388 42.5384 108.039 42.7135 107.311C42.89 106.837 43.0116 106.484 42.311 106.452C41.2052 106.392 41.22 107.323 41.0099 108.117C40.9205 108.432 40.7631 109.26 40.5088 109.402C40.27 109.532 39.3107 109.417 39.011 109.456C38.7208 109.538 38.4549 109.792 38.3853 110.052C38.2908 110.281 38.3429 110.723 38.6192 110.907C39.0025 111.144 40.0225 110.815 40.2907 111.209C40.1502 112.011 40.0689 112.65 39.9298 113.17C39.8895 113.419 39.6112 114.46 39.5431 114.706C39.4918 114.926 39.0597 116.091 39.1198 116.323C39.1968 116.528 39.6292 116.7 39.9399 116.691C40.6463 116.666 40.8922 115.13 41.0395 114.666C41.1105 114.392 41.3624 113.335 41.4195 113.059C41.4964 112.73 41.7592 111.166 42.0472 110.971C42.3212 110.775 43.4527 110.993 43.9077 110.815C44.2162 110.693 44.4257 110.306 44.3817 109.922C44.3113 109.253 42.6025 109.707 42.302 109.351ZM46.5733 107.984C46.1886 108.028 45.812 108.397 45.8099 108.819C45.8056 109.663 47.3203 109.583 47.3956 108.732C47.4344 108.23 47.0709 107.938 46.5733 107.984ZM46.1992 110.338C45.5251 110.323 45.2357 111.067 45.0636 111.767C44.8557 112.674 44.625 113.664 44.4126 114.613C44.2859 115.148 44.1021 115.692 44.3139 115.954C44.6115 116.337 45.504 116.149 45.7399 115.78C45.9099 115.502 45.95 114.718 46.0306 114.22C46.166 113.333 46.3886 112.554 46.6252 111.776C46.7468 111.423 46.9087 111.088 46.8859 110.903C46.8544 110.534 46.3971 110.331 46.1992 110.338ZM50.163 110.023C49.7101 110.045 49.4712 110.175 49.1107 110.391C48.5378 110.753 48.452 110.899 48.0791 111.366C47.3714 112.207 47.0499 113.792 47.681 114.886C48.0409 115.346 48.8016 115.876 49.5044 116.021C50.3435 116.207 51.0088 116.038 51.5745 115.746C52.5637 115.174 53.3168 114.169 53.2793 113.053C53.4109 111.265 52.2199 109.873 50.163 110.023ZM48.8511 113.531C48.8041 112.639 49.6085 111.414 50.375 111.354C51.3686 111.276 52.0943 112.408 51.7207 113.551C51.5296 114.164 50.8752 114.63 50.4304 114.71C49.4866 114.85 48.8908 114.225 48.8511 113.531ZM55.8728 113.396C55.7869 112.472 56.4572 110.783 55.3213 110.874C54.6677 110.932 54.6056 111.925 54.4943 112.716C54.3486 113.7 54.1201 114.535 53.9202 115.499C53.7306 116.366 53.4684 117.254 54.4928 117.15C54.8761 117.12 55.4628 115.957 55.7434 115.564C56.2343 114.912 56.1354 114.916 56.9281 114.07C57.2476 113.709 57.5816 113.21 58.0191 113.199C58.0368 113.835 57.9262 114.217 57.7724 114.877C57.6033 115.549 57.4561 116.279 57.4262 116.966C57.6937 117.501 58.6639 117.378 58.8947 116.923C58.9665 116.776 58.9459 116.436 58.9722 116.185C59.093 115.17 59.6079 113.62 59.6253 112.65C59.6304 112.2 59.4618 111.662 59.3049 111.547C58.8 111.127 58.2174 111.446 57.8276 111.673C57.3162 111.985 56.8795 112.39 56.5249 112.817C56.3469 113.038 56.1483 113.186 55.8728 113.396ZM66.7941 115.473C67.2352 115.294 67.7511 115.475 68.2905 115.433C68.802 115.388 69.0019 114.424 68.3973 114.149C67.723 113.867 67.4615 114.079 67.035 113.851C66.8502 113.466 67.1958 111.785 67.3233 111.376C67.5342 110.708 67.8792 109.435 68.5336 109.504C68.9234 109.545 68.9667 110.07 69.0628 110.362C69.1588 110.654 69.2402 111.085 69.5033 111.126C69.8133 111.257 70.2984 111.196 70.4522 110.804C70.5914 110.551 70.6001 109.932 70.3787 109.36C70.0803 108.583 69.5079 108.002 68.5253 108.11C67.5148 108.214 66.9235 108.884 66.4019 109.829C65.9338 110.667 65.7434 111.407 65.5193 112.467C65.4468 112.755 65.4674 113.363 65.3246 113.517C65.1495 113.709 65.3114 113.642 64.9201 113.615C64.5566 113.591 64.1309 113.757 64.0401 114.085C63.9822 114.234 63.906 114.423 64.079 114.653C64.5151 115.191 64.5026 114.908 65.1673 115.147C65.2773 115.975 64.8789 117.355 64.9948 118.127C65.0718 118.6 66.0838 118.749 66.3373 118.212C66.6332 117.539 66.5736 115.83 66.7941 115.473ZM72.5028 112.371C72.0499 112.393 71.8111 112.523 71.4506 112.739C70.8776 113.101 70.7919 113.247 70.419 113.714C69.7112 114.555 69.3898 116.14 70.0209 117.234C70.3807 117.694 71.1415 118.224 71.8442 118.369C72.6833 118.555 73.3487 118.386 73.9143 118.094C74.9035 117.522 75.6567 116.517 75.6191 115.401C75.7507 113.613 74.5597 112.221 72.5028 112.371ZM71.1909 115.879C71.1439 114.987 71.9483 113.762 72.7148 113.702C73.7085 113.624 74.4341 114.756 74.0606 115.899C73.8694 116.512 73.2151 116.978 72.7703 117.058C71.8265 117.198 71.2306 116.573 71.1909 115.879ZM78.4438 113.009C78.3331 112.857 78.1191 112.75 77.9088 112.742C77.154 112.691 77.1292 113.195 76.8956 114.212C76.6517 115.327 76.4124 117.202 76.1949 118.333C76.1224 118.621 76.0331 118.936 76.0712 119.109C76.1233 119.283 76.3981 119.481 76.6055 119.517C77.1316 119.6 77.3991 119.6 77.5881 119.141C77.8166 118.574 77.9681 116.999 78.0786 116.349C78.1035 116.113 79.1176 115.572 79.706 115.465C79.9515 115.406 80.5663 115.316 80.866 115.277C81.1518 115.236 81.7006 114.97 81.6756 114.405C81.6477 114.134 81.3326 113.918 81.0431 113.859C80.5492 113.737 79.9549 113.9 79.5644 114C79.2017 114.102 78.6814 114.498 78.3451 114.35C78.4212 113.894 78.5472 113.499 78.4438 113.009ZM7.1917 127.283C7.83146 127.491 8.25204 127.24 8.39705 126.664C8.66435 125.594 8.72932 124.038 8.91889 122.637C9.09534 121.627 9.34796 120.429 9.54419 119.366C9.7126 118.567 10.1799 117.068 9.48151 116.882C9.26605 116.789 8.7978 116.824 8.68131 116.995C8.28645 117.671 8.39888 119.682 7.76727 120.066C6.87618 119.972 6.08477 120.002 5.33517 120.303C4.65665 120.598 4.15695 121.066 3.77087 121.659C3.4551 122.119 3.21707 122.91 3.3359 123.655C3.45766 124.371 4.12388 125.131 4.70139 125.53C5.33312 125.948 6.07545 125.984 6.82367 126.231C6.97394 126.543 6.88756 127.097 7.1917 127.283ZM7.36107 123.261C7.27394 123.688 7.1942 124.581 7.02278 124.873C6.35228 124.957 5.38417 124.391 5.03601 123.819C4.46135 122.858 5.287 121.565 6.32757 121.576C6.97389 121.587 7.32562 121.456 7.50666 121.742C7.57339 122.045 7.44967 122.82 7.36107 123.261ZM11.9469 118.422C11.5622 118.466 11.1856 118.835 11.1834 119.257C11.1792 120.101 12.6939 120.021 12.7692 119.17C12.808 118.667 12.4444 118.376 11.9469 118.422ZM11.5728 120.776C10.8986 120.761 10.6093 121.505 10.4372 122.205C10.2292 123.112 9.99855 124.101 9.78618 125.05C9.6595 125.586 9.47565 126.13 9.68747 126.391C9.98504 126.775 10.8776 126.587 11.1135 126.218C11.2834 125.94 11.3236 125.156 11.4041 124.657C11.5396 123.771 11.7622 122.992 11.9988 122.214C12.1204 121.861 12.2823 121.526 12.2595 121.341C12.2279 120.971 11.7706 120.768 11.5728 120.776ZM15.634 120.471C14.8734 120.475 14.1523 120.639 13.5867 121.199C13.3654 121.429 13.2314 122.034 13.2212 122.399C13.2015 122.988 13.738 123.509 14.1748 123.907C14.5354 124.226 15.431 124.813 15.2845 125.403C14.3291 126.457 13.9002 125.314 13.1147 125.555C12.9696 125.596 12.7865 125.732 12.7454 125.854C12.5455 126.551 12.7214 126.753 13.8771 127.141C14.3666 127.306 15.1441 127.275 15.5618 127.051C16.1428 126.746 16.6498 126.208 16.7582 125.445C16.8943 124.418 16.0786 123.741 15.5546 123.235C15.4395 123.125 14.7535 122.687 14.8224 122.3C14.897 121.857 15.3557 121.779 16.0996 122.068C16.3649 122.223 16.9541 122.777 17.256 122.584C17.404 122.515 17.7396 122.269 17.7359 121.902C17.7314 121.409 17.225 121.004 16.6915 120.723C16.4247 120.582 15.7051 120.464 15.634 120.471ZM23.2465 126.606C23.0097 125.779 22.3487 126.174 21.5434 126.202C20.4552 126.242 19.8484 125.587 19.6782 124.795C19.5206 124.018 20.4877 123.12 21.5033 123.101C21.8837 123.098 22.245 123.277 22.7271 123.243C23.1089 123.227 23.5053 122.804 23.4371 122.248C23.363 121.747 21.9457 121.57 21.4943 121.579C20.2837 121.579 19.2374 122.159 18.6096 123.176C18.3114 123.736 18.0661 124.597 18.1937 125.258C18.5463 126.591 19.4588 127.418 20.89 127.597C22.1819 127.761 23.4532 127.317 23.2465 126.606ZM27.0532 121.671C26.6003 121.694 26.3614 121.823 26.0009 122.039C25.428 122.401 25.3422 122.547 24.9693 123.014C24.2616 123.855 23.9401 125.44 24.5712 126.534C24.9311 126.994 25.6918 127.525 26.3946 127.669C27.2337 127.856 27.899 127.686 28.4647 127.394C29.4539 126.822 30.207 125.817 30.1695 124.701C30.3011 122.913 29.1101 121.521 27.0532 121.671ZM25.7413 125.179C25.6943 124.287 26.4987 123.062 27.2652 123.002C28.2588 122.924 28.9845 124.056 28.6109 125.199C28.4198 125.812 27.7654 126.278 27.3207 126.358C26.3768 126.499 25.781 125.873 25.7413 125.179ZM32.9157 126.806C32.8914 126.099 32.7703 124.975 32.675 124.275C32.628 123.918 32.5678 123.151 32.4087 122.923C32.1266 122.528 31.4084 122.663 31.1535 122.946C31.089 123.024 30.9176 123.316 31.0144 123.734C31.0218 124.467 31.5776 126.412 31.7661 127.698C31.8409 128.326 31.8703 128.85 32.2917 128.992C32.9798 129.276 33.5975 128.355 33.9425 127.885C35.0803 126.301 35.5382 125.561 36.1148 124.763C36.4291 124.317 36.8694 124.012 36.7264 123.363C36.6289 122.818 36.0712 122.633 35.6367 122.883C35.1282 123.167 34.9033 123.833 34.5187 124.412C33.9846 125.074 33.4711 126.076 32.9157 126.806ZM38.4542 127.543C38.8001 127.466 39.3885 127.359 39.8333 127.279C40.4928 127.166 40.8335 127.004 41.4835 126.848C41.8726 126.762 42.1869 126.316 42.1986 125.937C42.2249 125.687 42.0885 125.109 42.0086 124.932C41.5577 123.463 40.4584 122.939 39.0442 123.269C38.4697 123.378 37.7861 123.855 37.3861 124.446C36.8761 125.012 36.6308 125.873 36.7695 127.098C37.0254 128.279 37.345 128.721 38.4245 129.299C39.0951 129.75 40.4786 129.712 41.2428 129.272C41.5 129.102 41.615 128.677 41.3423 128.325C40.8469 127.949 40.378 128.66 39.4656 128.367C38.8662 128.177 38.5173 128.014 38.4542 127.543ZM38.7308 124.911C39.6826 124.293 40.5122 124.437 40.763 125.533C40.6685 125.762 40.2398 125.957 39.9123 125.993C39.4147 126.039 38.5361 126.228 38.2899 126.16C38.2048 125.898 38.3381 125.166 38.7308 124.911ZM45.0683 123.578C44.9576 123.426 44.7436 123.319 44.5333 123.311C43.7785 123.26 43.7537 123.764 43.5201 124.781C43.2762 125.896 43.0369 127.771 42.8194 128.902C42.7469 129.19 42.6576 129.505 42.6957 129.678C42.7478 129.852 43.0226 130.05 43.23 130.086C43.7561 130.169 44.0236 130.169 44.2126 129.71C44.4411 129.143 44.5926 127.568 44.7031 126.918C44.728 126.682 45.7421 126.141 46.3305 126.034C46.576 125.975 47.1908 125.885 47.4905 125.846C47.7763 125.806 48.3251 125.54 48.3001 124.974C48.2722 124.703 47.9571 124.487 47.6676 124.429C47.1737 124.306 46.5794 124.469 46.1889 124.569C45.8261 124.672 45.3059 125.067 44.9695 124.919C45.0457 124.463 45.1717 124.068 45.0683 123.578ZM53.7486 126.11C54.2593 126.205 54.91 125.64 55.9718 125.583C56.2876 125.658 56.6849 126.432 56.2871 126.869C56.035 127.124 54.8464 126.915 54.1422 127.052C53.7392 127.136 53.2211 127.377 53.0057 127.552C52.6672 127.826 52.254 128.275 52.3296 129.029C52.3377 129.354 52.5854 129.676 52.8126 129.925C53.3565 130.643 53.9567 130.96 54.7445 131.366C54.971 131.489 55.5316 131.646 55.7727 131.629C56.1112 131.623 56.5259 131.16 56.6526 130.891C56.9544 130.163 57.1742 129.412 57.4122 128.62C57.5982 127.922 57.9124 126.941 57.8529 126.034C57.8176 125.298 57.4145 124.58 56.9323 124.347C56.0756 124.06 55.3626 124.28 54.4386 124.634C53.9726 124.782 53.4157 124.991 53.4268 125.555C53.4422 125.81 53.4943 125.984 53.7486 126.11ZM55.0599 128.232C55.3259 128.246 55.8623 128.232 56.0272 128.404C55.976 128.892 55.8317 129.862 55.3884 129.928C54.7303 129.76 53.7307 129.359 53.8017 128.55C54.0398 128.294 54.5278 128.204 55.0599 128.232ZM66.2513 125.946C66.1977 124.983 66.4878 124.633 66.6628 123.905C66.8394 123.431 66.9609 123.078 66.2604 123.047C65.1546 122.987 65.1694 123.917 64.9592 124.712C64.8699 125.026 64.7124 125.854 64.4582 125.996C64.2193 126.126 63.2601 126.011 62.9604 126.05C62.6702 126.132 62.4042 126.386 62.3346 126.646C62.2402 126.875 62.2922 127.317 62.5685 127.501C62.9518 127.738 63.9718 127.409 64.2401 127.803C64.0995 128.605 64.0183 129.244 63.8791 129.765C63.8389 130.014 63.5606 131.054 63.4925 131.3C63.4412 131.52 63.009 132.686 63.0692 132.917C63.1461 133.122 63.5785 133.294 63.8892 133.285C64.5956 133.261 64.8416 131.724 64.9888 131.261C65.0599 130.987 65.3118 129.929 65.3689 129.654C65.4458 129.324 65.7086 127.761 65.9966 127.566C66.2706 127.369 67.4021 127.587 67.8571 127.409C68.1656 127.287 68.3751 126.901 68.3311 126.516C68.2606 125.847 66.5518 126.301 66.2513 125.946ZM70.7801 126.281C70.6695 126.128 70.4555 126.021 70.2452 126.013C69.4904 125.962 69.4655 126.466 69.2319 127.484C68.9881 128.598 68.7488 130.473 68.5313 131.605C68.4588 131.893 68.3695 132.207 68.4076 132.38C68.4596 132.555 68.7345 132.752 68.9419 132.788C69.468 132.872 69.7355 132.872 69.9245 132.413C70.153 131.846 70.3045 130.271 70.415 129.621C70.4399 129.384 71.454 128.843 72.0424 128.736C72.2879 128.678 72.9027 128.587 73.2024 128.548C73.4882 128.508 74.037 128.242 74.012 127.676C73.9841 127.406 73.669 127.19 73.3795 127.131C72.8856 127.009 72.2913 127.172 71.9007 127.271C71.538 127.374 71.0178 127.77 70.6814 127.622C70.7576 127.165 70.8835 126.77 70.7801 126.281ZM75.7644 131.464C76.1102 131.388 76.6986 131.281 77.1434 131.201C77.8029 131.087 78.1437 130.926 78.7936 130.769C79.1827 130.683 79.497 130.238 79.5087 129.859C79.535 129.608 79.3986 129.031 79.3187 128.853C78.8678 127.384 77.7686 126.86 76.3543 127.19C75.7798 127.299 75.0962 127.776 74.6962 128.368C74.1863 128.933 73.9409 129.794 74.0796 131.02C74.3355 132.201 74.6551 132.643 75.7346 133.221C76.4052 133.671 77.7887 133.634 78.5529 133.193C78.8101 133.023 78.9251 132.599 78.6524 132.246C78.157 131.87 77.6881 132.581 76.7757 132.288C76.1763 132.099 75.8275 131.935 75.7644 131.464ZM76.0409 128.833C76.9927 128.215 77.8223 128.358 78.0731 129.454C77.9786 129.684 77.5499 129.878 77.2224 129.914C76.7248 129.96 75.8462 130.15 75.6 130.081C75.515 129.819 75.6482 129.087 76.0409 128.833ZM82.1472 130.235C82.0614 129.311 82.7316 127.621 81.5958 127.713C80.9421 127.771 80.88 128.764 80.7687 129.555C80.6231 130.539 80.3946 131.374 80.1947 132.338C80.005 133.205 79.7428 134.092 80.7672 133.989C81.1505 133.959 81.7373 132.796 82.0179 132.403C82.5087 131.751 82.4098 131.754 83.2026 130.909C83.522 130.548 83.8561 130.048 84.2936 130.038C84.3112 130.673 84.2007 131.056 84.0469 131.715C83.8777 132.387 83.7305 133.118 83.7006 133.805C83.9681 134.339 84.9383 134.216 85.1691 133.762C85.2409 133.615 85.2203 133.274 85.2467 133.024C85.3674 132.009 85.8823 130.458 85.8998 129.489C85.9048 129.039 85.7362 128.5 85.5794 128.385C85.0744 127.966 84.4919 128.285 84.1021 128.512C83.5906 128.824 83.1539 129.228 82.7993 129.656C82.6213 129.876 82.4227 130.024 82.1472 130.235ZM90.378 136.027C91.0178 136.235 91.4384 135.983 91.5834 135.407C91.8507 134.337 91.9156 132.782 92.1052 131.38C92.2817 130.371 92.5343 129.173 92.7305 128.109C92.8989 127.31 93.3662 125.811 92.6678 125.625C92.4524 125.532 91.9841 125.567 91.8676 125.738C91.4728 126.414 91.5852 128.425 90.9536 128.809C90.0625 128.716 89.2711 128.745 88.5215 129.046C87.843 129.341 87.3433 129.809 86.9572 130.402C86.6414 130.862 86.4034 131.653 86.5222 132.398C86.644 133.114 87.3102 133.874 87.8877 134.273C88.5194 134.691 89.2618 134.727 90.01 134.974C90.1603 135.286 90.0739 135.84 90.378 136.027ZM90.5474 132.004C90.4603 132.432 90.3805 133.324 90.2091 133.616C89.5386 133.7 88.5705 133.134 88.2223 132.562C87.6477 131.601 88.4733 130.308 89.5139 130.319C90.1602 130.331 90.5119 130.199 90.693 130.485C90.7597 130.788 90.636 131.563 90.5474 132.004Z" fill="black"/>
<defs>
<linearGradient id="paint0_linear_0_1" x1="542.226" y1="101" x2="457.581" y2="101" gradientUnits="userSpaceOnUse">
<stop offset="0.536458" stop-color="#030303"/>
<stop offset="1" stop-color="#030303" stop-opacity="0.6"/>
</linearGradient>
<clipPath id="clip0_0_1">
<rect width="28.3944" height="34.4457" fill="white" transform="translate(688.518 92.6121) rotate(107.943)"/>
</clipPath>
<clipPath id="clip1_0_1">
<rect width="28.3944" height="34.4457" fill="white" transform="translate(52.9991 93.0134) rotate(-72.0565)"/>
</clipPath>
</defs>
</svg>
